<svg width="60" height="60" viewBox="0 0 60 60" fill="none" xmlns="http://www.w3.org/2000/svg">
<circle cx="30" cy="30" r="30" fill="white"/>
<g clip-path="url(#clip0_31_152)">
<path d="M30.0001 17C23.0151 17 17.3533 22.6623 17.3533 29.6468C17.3533 32.6241 18.3885 35.3542 20.1116 37.5132C20.8099 38.3854 21.1707 39.7803 20.5344 40.603C20.0801 41.1915 19.5796 41.5937 19.0395 41.6654C17.2783 41.9007 19.6861 44.0091 23.8139 42.3995C24.8545 41.9936 26.4739 41.8333 27.5699 42.0523C28.3552 42.2099 29.1676 42.2936 30.0006 42.2936C36.9856 42.2936 42.6474 36.6318 42.6474 29.6473C42.6474 22.6629 36.9845 17 30.0001 17Z" fill="#0046BB"/>
</g>
<defs>
<clipPath id="clip0_31_152">
<rect width="26" height="26" fill="white" transform="translate(17 17)"/>
</clipPath>
</defs>
</svg>
