<svg width="60" height="60" viewBox="0 0 60 60" fill="none" xmlns="http://www.w3.org/2000/svg">
<circle cx="30" cy="30" r="30" fill="#0046BB"/>
<g clip-path="url(#clip0_31_140)">
<path d="M42.1505 24.9871H35.0129V17.8495C35.0129 17.3803 34.6326 17 34.1635 17H17.8495C17.3803 17 17 17.3803 17 17.8495V34.1634C17 34.6325 17.3803 35.0129 17.8495 35.0129H24.9871V42.1505C24.9871 42.6197 25.3674 43 25.8365 43H42.1505C42.6197 43 43 42.6197 43 42.1505V25.8365C43 25.3674 42.6197 24.9871 42.1505 24.9871ZM33.3522 32.4946C33.3522 32.9638 32.9719 33.3441 32.5027 33.3441H27.4911C27.0192 33.3441 26.6416 32.9592 26.6416 32.4946V27.483C26.6416 27.0116 27.0282 26.6335 27.4911 26.6335H32.5027C32.9646 26.6335 33.3522 27.0093 33.3522 27.483V32.4946Z" fill="white"/>
</g>
<defs>
<clipPath id="clip0_31_140">
<rect width="26" height="26" fill="white" transform="translate(17 17)"/>
</clipPath>
</defs>
</svg>
