<svg width="370" height="108" viewBox="0 0 370 108" fill="none" xmlns="http://www.w3.org/2000/svg">
<path fill-rule="evenodd" clip-rule="evenodd" d="M30.0328 14C52.1091 14.0177 70 31.9195 70 54C70 76.0805 52.1091 93.9823 30.0328 94C30.5474 101.818 37.0517 108 45 108H355C363.284 108 370 101.284 370 93V15C370 6.71573 363.284 0 355 0H45C37.0517 0 30.5474 6.18198 30.0328 14Z" fill="#F2F6FC"/>
<path d="M96.12 48.8H103.48V50.56H98.04V52.896H100.2C101.576 52.896 102.6 53.2107 103.272 53.84C103.944 54.4693 104.28 55.3387 104.28 56.448C104.28 57.536 103.939 58.4 103.256 59.04C102.573 59.68 101.555 60 100.2 60H96.12V48.8ZM100.12 58.24C100.845 58.24 101.384 58.08 101.736 57.76C102.088 57.4293 102.264 56.992 102.264 56.448C102.264 55.9147 102.083 55.4827 101.72 55.152C101.357 54.8213 100.824 54.656 100.12 54.656H98.04V58.24H100.12ZM109.166 60.16C107.96 60.16 107.016 59.8187 106.334 59.136C105.662 58.4427 105.326 57.456 105.326 56.176V55.824C105.326 55.1947 105.411 54.6347 105.582 54.144C105.763 53.6533 106.019 53.2373 106.35 52.896C106.691 52.5547 107.096 52.2933 107.566 52.112C108.035 51.9307 108.568 51.84 109.166 51.84C110.371 51.84 111.31 52.1867 111.982 52.88C112.664 53.5627 113.006 54.544 113.006 55.824V56.176C113.006 56.8053 112.915 57.3653 112.734 57.856C112.563 58.3467 112.307 58.7627 111.966 59.104C111.635 59.4453 111.23 59.7067 110.75 59.888C110.28 60.0693 109.752 60.16 109.166 60.16ZM109.166 58.464C109.752 58.464 110.211 58.2827 110.542 57.92C110.883 57.5467 111.054 56.9653 111.054 56.176V55.824C111.054 55.056 110.883 54.4853 110.542 54.112C110.2 53.728 109.742 53.536 109.166 53.536C108.579 53.536 108.115 53.7227 107.774 54.096C107.443 54.4587 107.278 55.0347 107.278 55.824V56.176C107.278 56.944 107.448 57.52 107.79 57.904C108.131 58.2773 108.59 58.464 109.166 58.464ZM113.566 58.464H113.726C114.036 58.464 114.276 58.3733 114.446 58.192C114.628 58 114.756 57.7387 114.83 57.408C114.916 57.0667 114.964 56.672 114.974 56.224C114.996 55.7653 115.006 55.264 115.006 54.72V52H121.086V60H119.23V53.696H116.862V54.72C116.862 55.3387 116.841 55.9733 116.798 56.624C116.766 57.264 116.649 57.8453 116.446 58.368C116.254 58.8907 115.945 59.3227 115.518 59.664C115.102 59.9947 114.505 60.16 113.726 60.16H113.566V58.464ZM123.165 52H125.021V54.4H126.365C127.517 54.4 128.365 54.6507 128.909 55.152C129.453 55.6533 129.725 56.336 129.725 57.2C129.725 58.064 129.448 58.7467 128.893 59.248C128.349 59.7493 127.506 60 126.365 60H123.165V52ZM125.021 55.936V58.464H126.285C126.818 58.464 127.197 58.3573 127.421 58.144C127.656 57.9307 127.773 57.616 127.773 57.2C127.773 56.7947 127.656 56.4853 127.421 56.272C127.186 56.048 126.808 55.936 126.285 55.936H125.021ZM131.009 52H132.865V58.304H135.121V52H136.977V58.304H139.233V52H141.089V60H131.009V52ZM146.525 60.16C145.32 60.16 144.376 59.8187 143.693 59.136C143.021 58.4427 142.685 57.456 142.685 56.176V55.824C142.685 55.1947 142.77 54.6347 142.941 54.144C143.122 53.6533 143.378 53.2373 143.709 52.896C144.05 52.5547 144.456 52.2933 144.925 52.112C145.394 51.9307 145.928 51.84 146.525 51.84C147.73 51.84 148.669 52.1867 149.341 52.88C150.024 53.5627 150.365 54.544 150.365 55.824V56.176C150.365 56.8053 150.274 57.3653 150.093 57.856C149.922 58.3467 149.666 58.7627 149.325 59.104C148.994 59.4453 148.589 59.7067 148.109 59.888C147.64 60.0693 147.112 60.16 146.525 60.16ZM146.525 58.464C147.112 58.464 147.57 58.2827 147.901 57.92C148.242 57.5467 148.413 56.9653 148.413 56.176V55.824C148.413 55.056 148.242 54.4853 147.901 54.112C147.56 53.728 147.101 53.536 146.525 53.536C145.938 53.536 145.474 53.7227 145.133 54.096C144.802 54.4587 144.637 55.0347 144.637 55.824V56.176C144.637 56.944 144.808 57.52 145.149 57.904C145.49 58.2773 145.949 58.464 146.525 58.464ZM151.962 52H153.818V57.6H153.85L156.762 52H159.162V60H157.306V54.4H157.274L154.362 60H151.962V52ZM155.562 51.04C154.826 51.04 154.255 50.8427 153.85 50.448C153.445 50.0427 153.242 49.4933 153.242 48.8H154.65C154.65 49.1947 154.73 49.488 154.89 49.68C155.061 49.8613 155.285 49.952 155.562 49.952C155.839 49.952 156.058 49.8613 156.218 49.68C156.389 49.488 156.474 49.1947 156.474 48.8H157.882C157.882 49.4933 157.679 50.0427 157.274 50.448C156.869 50.8427 156.298 51.04 155.562 51.04ZM167.483 60.16C166.534 60.16 165.83 59.9467 165.371 59.52C164.912 59.0933 164.683 58.5013 164.683 57.744C164.683 57.3493 164.747 56.992 164.875 56.672C165.003 56.352 165.211 56.08 165.499 55.856C165.787 55.632 166.16 55.4613 166.619 55.344C167.078 55.216 167.632 55.152 168.283 55.152H169.867V54.72C169.867 54.304 169.744 53.984 169.499 53.76C169.254 53.5253 168.875 53.408 168.363 53.408C167.851 53.408 167.483 53.504 167.259 53.696C167.035 53.8773 166.902 54.112 166.859 54.4H165.003C165.024 54.0373 165.11 53.7013 165.259 53.392C165.408 53.072 165.622 52.8 165.899 52.576C166.176 52.3413 166.518 52.16 166.923 52.032C167.339 51.904 167.819 51.84 168.363 51.84C169.504 51.84 170.347 52.1013 170.891 52.624C171.446 53.1467 171.723 53.8987 171.723 54.88V60H170.283L170.107 58.96H170.075C169.766 59.344 169.387 59.6427 168.939 59.856C168.491 60.0587 168.006 60.16 167.483 60.16ZM167.803 58.592C168.102 58.592 168.374 58.544 168.619 58.448C168.875 58.352 169.094 58.224 169.275 58.064C169.456 57.8933 169.6 57.696 169.707 57.472C169.814 57.2373 169.867 56.9867 169.867 56.72V56.528H168.363C167.723 56.528 167.275 56.6347 167.019 56.848C166.763 57.0507 166.635 57.328 166.635 57.68C166.635 57.9467 166.726 58.1653 166.907 58.336C167.099 58.5067 167.398 58.592 167.803 58.592ZM176.928 60.16C175.786 60.16 174.885 59.8187 174.224 59.136C173.573 58.4427 173.248 57.4293 173.248 56.096V55.744C173.248 55.1253 173.333 54.576 173.504 54.096C173.674 53.616 173.92 53.2107 174.24 52.88C174.56 52.5387 174.944 52.2827 175.392 52.112C175.85 51.9307 176.362 51.84 176.928 51.84C177.45 51.84 177.914 51.9093 178.32 52.048C178.736 52.1867 179.088 52.3787 179.376 52.624C179.674 52.8693 179.909 53.1573 180.08 53.488C180.261 53.8187 180.384 54.176 180.448 54.56H178.496C178.378 54.2507 178.202 54.0053 177.968 53.824C177.744 53.632 177.424 53.536 177.008 53.536C176.496 53.536 176.064 53.7067 175.712 54.048C175.37 54.3893 175.2 54.9547 175.2 55.744V56.096C175.2 56.5333 175.242 56.9013 175.328 57.2C175.424 57.4987 175.552 57.744 175.712 57.936C175.882 58.1173 176.074 58.2507 176.288 58.336C176.512 58.4213 176.752 58.464 177.008 58.464C177.424 58.464 177.744 58.3627 177.968 58.16C178.202 57.9573 178.378 57.664 178.496 57.28H180.448C180.384 57.7067 180.261 58.096 180.08 58.448C179.909 58.8 179.674 59.104 179.376 59.36C179.088 59.616 178.736 59.8133 178.32 59.952C177.914 60.0907 177.45 60.16 176.928 60.16ZM185.006 60.16C183.864 60.16 182.963 59.8187 182.302 59.136C181.651 58.4427 181.326 57.4293 181.326 56.096V55.744C181.326 55.1253 181.411 54.576 181.582 54.096C181.752 53.616 181.998 53.2107 182.318 52.88C182.638 52.5387 183.022 52.2827 183.47 52.112C183.928 51.9307 184.44 51.84 185.006 51.84C185.528 51.84 185.992 51.9093 186.398 52.048C186.814 52.1867 187.166 52.3787 187.454 52.624C187.752 52.8693 187.987 53.1573 188.158 53.488C188.339 53.8187 188.462 54.176 188.526 54.56H186.574C186.456 54.2507 186.28 54.0053 186.046 53.824C185.822 53.632 185.502 53.536 185.086 53.536C184.574 53.536 184.142 53.7067 183.79 54.048C183.448 54.3893 183.278 54.9547 183.278 55.744V56.096C183.278 56.5333 183.32 56.9013 183.406 57.2C183.502 57.4987 183.63 57.744 183.79 57.936C183.96 58.1173 184.152 58.2507 184.366 58.336C184.59 58.4213 184.83 58.464 185.086 58.464C185.502 58.464 185.822 58.3627 186.046 58.16C186.28 57.9573 186.456 57.664 186.574 57.28H188.526C188.462 57.7067 188.339 58.096 188.158 58.448C187.987 58.8 187.752 59.104 187.454 59.36C187.166 59.616 186.814 59.8133 186.398 59.952C185.992 60.0907 185.528 60.16 185.006 60.16ZM193.244 60.16C192.038 60.16 191.094 59.8187 190.412 59.136C189.74 58.4427 189.404 57.456 189.404 56.176V55.824C189.404 55.1947 189.489 54.6347 189.66 54.144C189.841 53.6533 190.097 53.2373 190.428 52.896C190.769 52.5547 191.174 52.2933 191.644 52.112C192.113 51.9307 192.646 51.84 193.244 51.84C194.449 51.84 195.388 52.1867 196.06 52.88C196.742 53.5627 197.084 54.544 197.084 55.824V56.176C197.084 56.8053 196.993 57.3653 196.812 57.856C196.641 58.3467 196.385 58.7627 196.044 59.104C195.713 59.4453 195.308 59.7067 194.828 59.888C194.358 60.0693 193.83 60.16 193.244 60.16ZM193.244 58.464C193.83 58.464 194.289 58.2827 194.62 57.92C194.961 57.5467 195.132 56.9653 195.132 56.176V55.824C195.132 55.056 194.961 54.4853 194.62 54.112C194.278 53.728 193.82 53.536 193.244 53.536C192.657 53.536 192.193 53.7227 191.852 54.096C191.521 54.4587 191.356 55.0347 191.356 55.824V56.176C191.356 56.944 191.526 57.52 191.868 57.904C192.209 58.2773 192.668 58.464 193.244 58.464ZM198.681 52H200.121L200.281 52.96H200.313C200.963 52.2133 201.817 51.84 202.873 51.84C203.374 51.84 203.827 51.9253 204.233 52.096C204.649 52.256 205.001 52.5013 205.289 52.832C205.577 53.1627 205.801 53.5787 205.961 54.08C206.121 54.5707 206.201 55.152 206.201 55.824V56.176C206.201 57.4987 205.891 58.496 205.273 59.168C204.665 59.8293 203.865 60.16 202.873 60.16C202.414 60.16 201.977 60.0747 201.561 59.904C201.155 59.7333 200.825 59.4987 200.569 59.2H200.537V63.2H198.681V52ZM202.393 58.464C202.969 58.464 203.422 58.2827 203.753 57.92C204.083 57.5573 204.249 56.976 204.249 56.176V55.824C204.249 55.0453 204.078 54.4693 203.737 54.096C203.406 53.7227 202.958 53.536 202.393 53.536C201.817 53.536 201.363 53.7227 201.033 54.096C200.702 54.4587 200.537 55.04 200.537 55.84V56.192C200.537 56.96 200.702 57.5307 201.033 57.904C201.374 58.2773 201.827 58.464 202.393 58.464ZM209.045 53.696H206.613V52H213.333V53.696H210.901V60H209.045V53.696ZM214.54 52H216.396V57.6H216.428L219.34 52H221.74V60H219.884V54.4H219.852L216.94 60H214.54V52ZM223.821 52H226.573L228.269 56.352H228.301L229.997 52H232.621V60H230.765V54.16H230.733L229.149 58.24H227.293L225.709 54.16H225.677V60H223.821V52ZM238.056 60.16C236.851 60.16 235.907 59.8187 235.224 59.136C234.552 58.4427 234.216 57.456 234.216 56.176V55.824C234.216 55.1947 234.302 54.6347 234.472 54.144C234.654 53.6427 234.904 53.2213 235.224 52.88C235.555 52.5387 235.95 52.2827 236.408 52.112C236.878 51.9307 237.4 51.84 237.976 51.84C239.139 51.84 240.056 52.1867 240.728 52.88C241.4 53.5733 241.736 54.5813 241.736 55.904V56.576H236.088C236.142 57.28 236.318 57.792 236.616 58.112C236.915 58.432 237.368 58.592 237.976 58.592C238.936 58.592 239.523 58.2613 239.736 57.6H241.656C241.475 58.432 241.07 59.0667 240.44 59.504C239.822 59.9413 239.027 60.16 238.056 60.16ZM237.976 53.408C237.411 53.408 236.979 53.552 236.68 53.84C236.382 54.1173 236.19 54.5707 236.104 55.2H239.848C239.774 54.5707 239.587 54.1173 239.288 53.84C238.99 53.552 238.552 53.408 237.976 53.408ZM243.337 52H245.193V55.072H248.681V52H250.537V60H248.681V56.768H245.193V60H243.337V52ZM254.17 53.696H251.738V52H258.458V53.696H256.026V60H254.17V53.696Z" fill="#383838"/>
<circle cx="30" cy="54" r="30" fill="#0046BB"/>
<g clip-path="url(#clip0_31_134)">
<path d="M42.1505 48.9871H35.0129V41.8495C35.0129 41.3803 34.6326 41 34.1635 41H17.8495C17.3803 41 17 41.3803 17 41.8495V58.1634C17 58.6325 17.3803 59.0129 17.8495 59.0129H24.9871V66.1505C24.9871 66.6197 25.3674 67 25.8365 67H42.1505C42.6197 67 43 66.6197 43 66.1505V49.8365C43 49.3674 42.6197 48.9871 42.1505 48.9871ZM33.3522 56.4946C33.3522 56.9638 32.9719 57.3441 32.5027 57.3441H27.4911C27.0192 57.3441 26.6416 56.9592 26.6416 56.4946V51.483C26.6416 51.0116 27.0282 50.6335 27.4911 50.6335H32.5027C32.9646 50.6335 33.3522 51.0093 33.3522 51.483V56.4946Z" fill="white"/>
</g>
<defs>
<clipPath id="clip0_31_134">
<rect width="26" height="26" fill="white" transform="translate(17 41)"/>
</clipPath>
</defs>
</svg>
