<svg width="80" height="80" viewBox="0 0 80 80" fill="none" xmlns="http://www.w3.org/2000/svg">
<circle cx="40" cy="40" r="35" fill="#0046BB" stroke="white" stroke-width="10"/>
<g clip-path="url(#clip0_20_256)">
<path d="M52.7403 34.1815L47.9539 29.3928C47.7877 29.2264 47.5618 29.1328 47.3265 29.1328C47.0912 29.1328 46.8653 29.2263 46.699 29.3928L36.9479 39.1479L33.3009 35.4996C33.1344 35.3332 32.9088 35.2397 32.6733 35.2397C32.438 35.2397 32.2122 35.3332 32.0458 35.4997L27.2597 40.2885C26.9134 40.635 26.9134 41.1965 27.2597 41.5429L36.3204 50.6074C36.4868 50.7739 36.7125 50.8674 36.9479 50.8674C37.1833 50.8674 37.409 50.774 37.5754 50.6074L52.7403 35.4358C53.0866 35.0894 53.0866 34.5279 52.7403 34.1815Z" fill="white"/>
</g>
<defs>
<clipPath id="clip0_20_256">
<rect width="26" height="26" fill="white" transform="translate(27 27)"/>
</clipPath>
</defs>
</svg>
