<svg width="370" height="108" viewBox="0 0 370 108" fill="none" xmlns="http://www.w3.org/2000/svg">
<path fill-rule="evenodd" clip-rule="evenodd" d="M30.0328 14C52.1091 14.0177 70 31.9195 70 54C70 76.0805 52.1091 93.9823 30.0328 94C30.5474 101.818 37.0517 108 45 108H355C363.284 108 370 101.284 370 93V15C370 6.71573 363.284 0 355 0H45C37.0517 0 30.5474 6.18198 30.0328 14Z" fill="#F2F6FC"/>
<path d="M100.68 48.16C99.9227 48.16 99.24 48.0427 98.632 47.808C98.024 47.5627 97.5013 47.2107 97.064 46.752C96.6373 46.2827 96.3067 45.7067 96.072 45.024C95.8373 44.3307 95.72 43.5413 95.72 42.656V41.984C95.72 41.1413 95.8373 40.3893 96.072 39.728C96.3067 39.0667 96.6373 38.5067 97.064 38.048C97.5013 37.5893 98.024 37.2427 98.632 37.008C99.2507 36.7627 99.9333 36.64 100.68 36.64C101.427 36.64 102.104 36.7627 102.712 37.008C103.331 37.2427 103.853 37.5893 104.28 38.048C104.717 38.496 105.053 39.056 105.288 39.728C105.523 40.3893 105.64 41.1413 105.64 41.984V42.656C105.64 43.5413 105.523 44.3253 105.288 45.008C105.053 45.6907 104.717 46.2667 104.28 46.736C103.853 47.2053 103.331 47.5627 102.712 47.808C102.104 48.0427 101.427 48.16 100.68 48.16ZM100.68 46.4C101.565 46.4 102.275 46.1013 102.808 45.504C103.352 44.9067 103.624 43.9573 103.624 42.656V41.984C103.624 40.7893 103.352 39.8933 102.808 39.296C102.264 38.6987 101.555 38.4 100.68 38.4C99.784 38.4 99.0693 38.6933 98.536 39.28C98.0027 39.8667 97.736 40.768 97.736 41.984V42.656C97.736 43.936 98.0027 44.88 98.536 45.488C99.08 46.096 99.7947 46.4 100.68 46.4ZM107.399 40H108.839L108.999 40.96H109.031C109.682 40.2133 110.535 39.84 111.591 39.84C112.093 39.84 112.546 39.9253 112.951 40.096C113.367 40.256 113.719 40.5013 114.007 40.832C114.295 41.1627 114.519 41.5787 114.679 42.08C114.839 42.5707 114.919 43.152 114.919 43.824V44.176C114.919 45.4987 114.61 46.496 113.991 47.168C113.383 47.8293 112.583 48.16 111.591 48.16C111.133 48.16 110.695 48.0747 110.279 47.904C109.874 47.7333 109.543 47.4987 109.287 47.2H109.255V51.2H107.399V40ZM111.111 46.464C111.687 46.464 112.141 46.2827 112.471 45.92C112.802 45.5573 112.967 44.976 112.967 44.176V43.824C112.967 43.0453 112.797 42.4693 112.455 42.096C112.125 41.7227 111.677 41.536 111.111 41.536C110.535 41.536 110.082 41.7227 109.751 42.096C109.421 42.4587 109.255 43.04 109.255 43.84V44.192C109.255 44.96 109.421 45.5307 109.751 45.904C110.093 46.2773 110.546 46.464 111.111 46.464ZM116.524 40H118.38V45.6H118.412L121.324 40H123.724V48H121.868V42.4H121.836L118.924 48H116.524V40ZM129.166 48.16C127.96 48.16 127.016 47.8187 126.334 47.136C125.662 46.4427 125.326 45.456 125.326 44.176V43.824C125.326 43.1947 125.411 42.6347 125.582 42.144C125.763 41.6427 126.014 41.2213 126.334 40.88C126.664 40.5387 127.059 40.2827 127.518 40.112C127.987 39.9307 128.51 39.84 129.086 39.84C130.248 39.84 131.166 40.1867 131.838 40.88C132.51 41.5733 132.846 42.5813 132.846 43.904V44.576H127.198C127.251 45.28 127.427 45.792 127.726 46.112C128.024 46.432 128.478 46.592 129.086 46.592C130.046 46.592 130.632 46.2613 130.846 45.6H132.766C132.584 46.432 132.179 47.0667 131.55 47.504C130.931 47.9413 130.136 48.16 129.166 48.16ZM129.086 41.408C128.52 41.408 128.088 41.552 127.79 41.84C127.491 42.1173 127.299 42.5707 127.214 43.2H130.958C130.883 42.5707 130.696 42.1173 130.398 41.84C130.099 41.552 129.662 41.408 129.086 41.408ZM134.446 40H136.302V43.072H139.79V40H141.646V48H139.79V44.768H136.302V48H134.446V40ZM145.28 41.696H142.848V40H149.568V41.696H147.136V48H145.28V41.696ZM150.774 40H152.63V45.6H152.662L155.574 40H157.974V48H156.118V42.4H156.086L153.174 48H150.774V40ZM160.056 40H161.496L161.656 40.96H161.688C162.338 40.2133 163.192 39.84 164.248 39.84C164.749 39.84 165.202 39.9253 165.608 40.096C166.024 40.256 166.376 40.5013 166.664 40.832C166.952 41.1627 167.176 41.5787 167.336 42.08C167.496 42.5707 167.576 43.152 167.576 43.824V44.176C167.576 45.4987 167.266 46.496 166.648 47.168C166.04 47.8293 165.24 48.16 164.248 48.16C163.789 48.16 163.352 48.0747 162.936 47.904C162.53 47.7333 162.2 47.4987 161.944 47.2H161.912V51.2H160.056V40ZM163.768 46.464C164.344 46.464 164.797 46.2827 165.128 45.92C165.458 45.5573 165.624 44.976 165.624 44.176V43.824C165.624 43.0453 165.453 42.4693 165.112 42.096C164.781 41.7227 164.333 41.536 163.768 41.536C163.192 41.536 162.738 41.7227 162.408 42.096C162.077 42.4587 161.912 43.04 161.912 43.84V44.192C161.912 44.96 162.077 45.5307 162.408 45.904C162.749 46.2773 163.202 46.464 163.768 46.464ZM173.181 40H175.037V43.072H178.525V40H180.381V48H178.525V44.768H175.037V48H173.181V40ZM184.702 48.16C183.753 48.16 183.049 47.9467 182.59 47.52C182.131 47.0933 181.902 46.5013 181.902 45.744C181.902 45.3493 181.966 44.992 182.094 44.672C182.222 44.352 182.43 44.08 182.718 43.856C183.006 43.632 183.379 43.4613 183.838 43.344C184.297 43.216 184.851 43.152 185.502 43.152H187.086V42.72C187.086 42.304 186.963 41.984 186.718 41.76C186.473 41.5253 186.094 41.408 185.582 41.408C185.07 41.408 184.702 41.504 184.478 41.696C184.254 41.8773 184.121 42.112 184.078 42.4H182.222C182.243 42.0373 182.329 41.7013 182.478 41.392C182.627 41.072 182.841 40.8 183.118 40.576C183.395 40.3413 183.737 40.16 184.142 40.032C184.558 39.904 185.038 39.84 185.582 39.84C186.723 39.84 187.566 40.1013 188.11 40.624C188.665 41.1467 188.942 41.8987 188.942 42.88V48H187.502L187.326 46.96H187.294C186.985 47.344 186.606 47.6427 186.158 47.856C185.71 48.0587 185.225 48.16 184.702 48.16ZM185.022 46.592C185.321 46.592 185.593 46.544 185.838 46.448C186.094 46.352 186.313 46.224 186.494 46.064C186.675 45.8933 186.819 45.696 186.926 45.472C187.033 45.2373 187.086 44.9867 187.086 44.72V44.528H185.582C184.942 44.528 184.494 44.6347 184.238 44.848C183.982 45.0507 183.854 45.328 183.854 45.68C183.854 45.9467 183.945 46.1653 184.126 46.336C184.318 46.5067 184.617 46.592 185.022 46.592ZM194.946 40H201.826V48H199.97V41.696H196.802V48H194.946V40ZM203.899 40H205.339L205.499 40.96H205.531C206.182 40.2133 207.035 39.84 208.091 39.84C208.593 39.84 209.046 39.9253 209.451 40.096C209.867 40.256 210.219 40.5013 210.507 40.832C210.795 41.1627 211.019 41.5787 211.179 42.08C211.339 42.5707 211.419 43.152 211.419 43.824V44.176C211.419 45.4987 211.11 46.496 210.491 47.168C209.883 47.8293 209.083 48.16 208.091 48.16C207.633 48.16 207.195 48.0747 206.779 47.904C206.374 47.7333 206.043 47.4987 205.787 47.2H205.755V51.2H203.899V40ZM207.611 46.464C208.187 46.464 208.641 46.2827 208.971 45.92C209.302 45.5573 209.467 44.976 209.467 44.176V43.824C209.467 43.0453 209.297 42.4693 208.955 42.096C208.625 41.7227 208.177 41.536 207.611 41.536C207.035 41.536 206.582 41.7227 206.251 42.096C205.921 42.4587 205.755 43.04 205.755 43.84V44.192C205.755 44.96 205.921 45.5307 206.251 45.904C206.593 46.2773 207.046 46.464 207.611 46.464ZM216.384 48.16C215.179 48.16 214.235 47.8187 213.552 47.136C212.88 46.4427 212.544 45.456 212.544 44.176V43.824C212.544 43.1947 212.63 42.6347 212.8 42.144C212.982 41.6427 213.232 41.2213 213.552 40.88C213.883 40.5387 214.278 40.2827 214.736 40.112C215.206 39.9307 215.728 39.84 216.304 39.84C217.467 39.84 218.384 40.1867 219.056 40.88C219.728 41.5733 220.064 42.5813 220.064 43.904V44.576H214.416C214.47 45.28 214.646 45.792 214.944 46.112C215.243 46.432 215.696 46.592 216.304 46.592C217.264 46.592 217.851 46.2613 218.064 45.6H219.984C219.803 46.432 219.398 47.0667 218.768 47.504C218.15 47.9413 217.355 48.16 216.384 48.16ZM216.304 41.408C215.739 41.408 215.307 41.552 215.008 41.84C214.71 42.1173 214.518 42.5707 214.432 43.2H218.176C218.102 42.5707 217.915 42.1173 217.616 41.84C217.318 41.552 216.88 41.408 216.304 41.408ZM220.629 46.304H221.429C221.567 46.0907 221.685 45.856 221.781 45.6C221.887 45.344 221.973 45.0613 222.037 44.752C222.101 44.4427 222.149 44.096 222.181 43.712C222.213 43.3173 222.229 42.88 222.229 42.4V40H228.309V46.304H229.189V50.08H227.429V48H222.389V50.08H220.629V46.304ZM226.453 46.304V41.696H223.989V42.4C223.989 43.3067 223.941 44.064 223.845 44.672C223.759 45.28 223.615 45.8133 223.413 46.272V46.304H226.453ZM230.462 40H237.342V48H235.486V41.696H232.318V48H230.462V40ZM242.775 48.16C241.57 48.16 240.626 47.8187 239.943 47.136C239.271 46.4427 238.935 45.456 238.935 44.176V43.824C238.935 43.1947 239.02 42.6347 239.191 42.144C239.372 41.6533 239.628 41.2373 239.959 40.896C240.3 40.5547 240.706 40.2933 241.175 40.112C241.644 39.9307 242.178 39.84 242.775 39.84C243.98 39.84 244.919 40.1867 245.591 40.88C246.274 41.5627 246.615 42.544 246.615 43.824V44.176C246.615 44.8053 246.524 45.3653 246.343 45.856C246.172 46.3467 245.916 46.7627 245.575 47.104C245.244 47.4453 244.839 47.7067 244.359 47.888C243.89 48.0693 243.362 48.16 242.775 48.16ZM242.775 46.464C243.362 46.464 243.82 46.2827 244.151 45.92C244.492 45.5467 244.663 44.9653 244.663 44.176V43.824C244.663 43.056 244.492 42.4853 244.151 42.112C243.81 41.728 243.351 41.536 242.775 41.536C242.188 41.536 241.724 41.7227 241.383 42.096C241.052 42.4587 240.887 43.0347 240.887 43.824V44.176C240.887 44.944 241.058 45.52 241.399 45.904C241.74 46.2773 242.199 46.464 242.775 46.464ZM251.092 45.648C249.897 45.648 249.039 45.3973 248.516 44.896C247.993 44.3947 247.732 43.6053 247.732 42.528V40H249.588V42.4C249.588 42.9867 249.695 43.392 249.908 43.616C250.132 43.84 250.527 43.952 251.092 43.952C251.38 43.952 251.652 43.9413 251.908 43.92C252.164 43.888 252.393 43.8507 252.596 43.808V40H254.452V48H252.596V45.504C252.393 45.5467 252.164 45.584 251.908 45.616C251.652 45.6373 251.38 45.648 251.092 45.648ZM258.076 41.696H255.644V40H262.364V41.696H259.932V48H258.076V41.696ZM266.619 48.16C265.413 48.16 264.469 47.8187 263.787 47.136C263.115 46.4427 262.779 45.456 262.779 44.176V43.824C262.779 43.1947 262.864 42.6347 263.035 42.144C263.216 41.6427 263.467 41.2213 263.787 40.88C264.117 40.5387 264.512 40.2827 264.971 40.112C265.44 39.9307 265.963 39.84 266.539 39.84C267.701 39.84 268.619 40.1867 269.291 40.88C269.963 41.5733 270.299 42.5813 270.299 43.904V44.576H264.651C264.704 45.28 264.88 45.792 265.179 46.112C265.477 46.432 265.931 46.592 266.539 46.592C267.499 46.592 268.085 46.2613 268.299 45.6H270.219C270.037 46.432 269.632 47.0667 269.003 47.504C268.384 47.9413 267.589 48.16 266.619 48.16ZM266.539 41.408C265.973 41.408 265.541 41.552 265.243 41.84C264.944 42.1173 264.752 42.5707 264.667 43.2H268.411C268.336 42.5707 268.149 42.1173 267.851 41.84C267.552 41.552 267.115 41.408 266.539 41.408ZM271.899 40H273.755V43.072H277.243V40H279.099V48H277.243V44.768H273.755V48H271.899V40ZM281.181 40H283.037V45.6H283.069L285.981 40H288.381V48H286.525V42.4H286.493L283.581 48H281.181V40ZM293.822 48.16C292.617 48.16 291.673 47.8187 290.99 47.136C290.318 46.4427 289.982 45.456 289.982 44.176V43.824C289.982 43.1947 290.067 42.6347 290.238 42.144C290.419 41.6427 290.67 41.2213 290.99 40.88C291.321 40.5387 291.715 40.2827 292.174 40.112C292.643 39.9307 293.166 39.84 293.742 39.84C294.905 39.84 295.822 40.1867 296.494 40.88C297.166 41.5733 297.502 42.5813 297.502 43.904V44.576H291.854C291.907 45.28 292.083 45.792 292.382 46.112C292.681 46.432 293.134 46.592 293.742 46.592C294.702 46.592 295.289 46.2613 295.502 45.6H297.422C297.241 46.432 296.835 47.0667 296.206 47.504C295.587 47.9413 294.793 48.16 293.822 48.16ZM293.742 41.408C293.177 41.408 292.745 41.552 292.446 41.84C292.147 42.1173 291.955 42.5707 291.87 43.2H295.614C295.539 42.5707 295.353 42.1173 295.054 41.84C294.755 41.552 294.318 41.408 293.742 41.408ZM96.04 64H97.896V66.992H98.696L100.68 64H102.76L100.184 67.744L103.08 72H100.872L98.696 68.688H97.896V72H96.04V64ZM103.473 70.464H103.633C103.942 70.464 104.182 70.3733 104.353 70.192C104.534 70 104.662 69.7387 104.737 69.408C104.822 69.0667 104.87 68.672 104.881 68.224C104.902 67.7653 104.913 67.264 104.913 66.72V64H110.993V72H109.137V65.696H106.769V66.72C106.769 67.3387 106.747 67.9733 106.705 68.624C106.673 69.264 106.555 69.8453 106.353 70.368C106.161 70.8907 105.851 71.3227 105.424 71.664C105.009 71.9947 104.411 72.16 103.633 72.16H103.473V70.464ZM113.071 64H114.927V69.6H114.959L117.871 64H120.271V72H118.415V66.4H118.383L115.471 72H113.071V64ZM125.713 72.16C124.507 72.16 123.563 71.8187 122.881 71.136C122.209 70.4427 121.873 69.456 121.873 68.176V67.824C121.873 67.1947 121.958 66.6347 122.129 66.144C122.31 65.6427 122.561 65.2213 122.881 64.88C123.211 64.5387 123.606 64.2827 124.065 64.112C124.534 63.9307 125.057 63.84 125.633 63.84C126.795 63.84 127.713 64.1867 128.385 64.88C129.057 65.5733 129.392 66.5813 129.392 67.904V68.576H123.745C123.798 69.28 123.974 69.792 124.273 70.112C124.571 70.432 125.025 70.592 125.633 70.592C126.593 70.592 127.179 70.2613 127.393 69.6H129.312C129.131 70.432 128.726 71.0667 128.097 71.504C127.478 71.9413 126.683 72.16 125.713 72.16ZM125.633 65.408C125.067 65.408 124.635 65.552 124.337 65.84C124.038 66.1173 123.846 66.5707 123.761 67.2H127.505C127.43 66.5707 127.243 66.1173 126.945 65.84C126.646 65.552 126.209 65.408 125.633 65.408ZM130.993 64H132.849V67.072H136.337V64H138.193V72H136.337V68.768H132.849V72H130.993V64ZM141.826 65.696H139.394V64H146.114V65.696H143.682V72H141.826V65.696ZM149.405 72.16C148.456 72.16 147.752 71.9467 147.293 71.52C146.834 71.0933 146.605 70.5013 146.605 69.744C146.605 69.3493 146.669 68.992 146.797 68.672C146.925 68.352 147.133 68.08 147.421 67.856C147.709 67.632 148.082 67.4613 148.541 67.344C149 67.216 149.554 67.152 150.205 67.152H151.789V66.72C151.789 66.304 151.666 65.984 151.421 65.76C151.176 65.5253 150.797 65.408 150.285 65.408C149.773 65.408 149.405 65.504 149.181 65.696C148.957 65.8773 148.824 66.112 148.781 66.4H146.925C146.946 66.0373 147.032 65.7013 147.181 65.392C147.33 65.072 147.544 64.8 147.821 64.576C148.098 64.3413 148.44 64.16 148.845 64.032C149.261 63.904 149.741 63.84 150.285 63.84C151.426 63.84 152.269 64.1013 152.813 64.624C153.368 65.1467 153.645 65.8987 153.645 66.88V72H152.205L152.029 70.96H151.997C151.688 71.344 151.309 71.6427 150.861 71.856C150.413 72.0587 149.928 72.16 149.405 72.16ZM149.725 70.592C150.024 70.592 150.296 70.544 150.541 70.448C150.797 70.352 151.016 70.224 151.197 70.064C151.378 69.8933 151.522 69.696 151.629 69.472C151.736 69.2373 151.789 68.9867 151.789 68.72V68.528H150.285C149.645 68.528 149.197 68.6347 148.941 68.848C148.685 69.0507 148.557 69.328 148.557 69.68C148.557 69.9467 148.648 70.1653 148.829 70.336C149.021 70.5067 149.32 70.592 149.725 70.592ZM159.649 64H166.529V72H164.673V65.696H161.505V72H159.649V64ZM168.603 64H170.043L170.203 64.96H170.235C170.885 64.2133 171.739 63.84 172.795 63.84C173.296 63.84 173.749 63.9253 174.155 64.096C174.571 64.256 174.923 64.5013 175.211 64.832C175.499 65.1627 175.723 65.5787 175.883 66.08C176.043 66.5707 176.123 67.152 176.123 67.824V68.176C176.123 69.4987 175.813 70.496 175.195 71.168C174.587 71.8293 173.787 72.16 172.795 72.16C172.336 72.16 171.899 72.0747 171.483 71.904C171.077 71.7333 170.747 71.4987 170.491 71.2H170.459V75.2H168.603V64ZM172.315 70.464C172.891 70.464 173.344 70.2827 173.675 69.92C174.005 69.5573 174.171 68.976 174.171 68.176V67.824C174.171 67.0453 174 66.4693 173.659 66.096C173.328 65.7227 172.88 65.536 172.315 65.536C171.739 65.536 171.285 65.7227 170.955 66.096C170.624 66.4587 170.459 67.04 170.459 67.84V68.192C170.459 68.96 170.624 69.5307 170.955 69.904C171.296 70.2773 171.749 70.464 172.315 70.464ZM177.728 64H179.584V69.6H179.616L182.528 64H184.928V72H183.072V66.4H183.04L180.128 72H177.728V64ZM191.009 64H194.209C194.785 64 195.275 64.0533 195.681 64.16C196.086 64.2667 196.417 64.4213 196.673 64.624C196.929 64.816 197.115 65.0507 197.233 65.328C197.35 65.6053 197.409 65.9147 197.409 66.256C197.409 66.5867 197.323 66.8907 197.153 67.168C196.982 67.4347 196.742 67.6533 196.433 67.824V67.856C196.838 68.016 197.153 68.256 197.377 68.576C197.611 68.896 197.729 69.2587 197.729 69.664C197.729 70.3893 197.483 70.96 196.993 71.376C196.513 71.792 195.691 72 194.529 72H191.009V64ZM195.457 66.368C195.457 66.112 195.361 65.9147 195.169 65.776C194.987 65.6373 194.641 65.568 194.129 65.568H192.865V67.232H194.129C194.641 67.232 194.987 67.152 195.169 66.992C195.361 66.832 195.457 66.624 195.457 66.368ZM195.777 69.52C195.777 69.2427 195.675 69.024 195.473 68.864C195.281 68.6933 194.939 68.608 194.449 68.608H192.865V70.432H194.449C194.939 70.432 195.281 70.352 195.473 70.192C195.675 70.0213 195.777 69.7973 195.777 69.52ZM206.745 64H208.601V72H206.745V64ZM199.321 64H201.177V66.4H202.521C203.673 66.4 204.521 66.6507 205.065 67.152C205.609 67.6533 205.881 68.336 205.881 69.2C205.881 70.064 205.604 70.7467 205.049 71.248C204.505 71.7493 203.663 72 202.521 72H199.321V64ZM201.177 67.936V70.464H202.441C202.975 70.464 203.353 70.3573 203.577 70.144C203.812 69.9307 203.929 69.616 203.929 69.2C203.929 68.7947 203.812 68.4853 203.577 68.272C203.343 68.048 202.964 67.936 202.441 67.936H201.177ZM214.121 72.16C212.926 72.16 211.987 71.7867 211.305 71.04C210.622 70.2933 210.281 69.1253 210.281 67.536V66.864C210.281 66.256 210.318 65.68 210.393 65.136C210.467 64.5813 210.59 64.08 210.761 63.632C210.931 63.1733 211.155 62.7733 211.433 62.432C211.721 62.08 212.067 61.792 212.473 61.568C212.835 61.376 213.187 61.248 213.529 61.184C213.881 61.12 214.243 61.072 214.617 61.04C215.001 61.008 215.411 60.9707 215.849 60.928C216.286 60.8853 216.777 60.7893 217.321 60.64V62.24C216.915 62.368 216.526 62.4533 216.153 62.496C215.79 62.5387 215.438 62.5707 215.097 62.592C214.755 62.6133 214.43 62.6507 214.121 62.704C213.822 62.7467 213.539 62.8427 213.273 62.992C212.931 63.184 212.633 63.4453 212.377 63.776C212.131 64.096 211.966 64.544 211.881 65.12H211.913C212.19 64.768 212.558 64.496 213.017 64.304C213.475 64.1013 213.977 64 214.521 64C215.033 64 215.497 64.0853 215.913 64.256C216.339 64.4267 216.702 64.6773 217.001 65.008C217.31 65.3387 217.545 65.7493 217.705 66.24C217.875 66.72 217.961 67.2747 217.961 67.904V68.256C217.961 69.4827 217.619 70.4427 216.937 71.136C216.254 71.8187 215.315 72.16 214.121 72.16ZM214.121 70.464C214.707 70.464 215.166 70.2827 215.497 69.92C215.838 69.5573 216.009 69.0027 216.009 68.256V67.904C216.009 67.168 215.838 66.6187 215.497 66.256C215.155 65.8827 214.697 65.696 214.121 65.696C213.545 65.696 213.086 65.8827 212.745 66.256C212.403 66.6187 212.233 67.168 212.233 67.904V68.256C212.233 68.992 212.403 69.5467 212.745 69.92C213.086 70.2827 213.545 70.464 214.121 70.464ZM222.916 72.16C221.71 72.16 220.766 71.8187 220.084 71.136C219.412 70.4427 219.076 69.456 219.076 68.176V67.824C219.076 67.1947 219.161 66.6347 219.332 66.144C219.513 65.6533 219.769 65.2373 220.1 64.896C220.441 64.5547 220.846 64.2933 221.316 64.112C221.785 63.9307 222.318 63.84 222.916 63.84C224.121 63.84 225.06 64.1867 225.732 64.88C226.414 65.5627 226.756 66.544 226.756 67.824V68.176C226.756 68.8053 226.665 69.3653 226.484 69.856C226.313 70.3467 226.057 70.7627 225.716 71.104C225.385 71.4453 224.98 71.7067 224.5 71.888C224.03 72.0693 223.502 72.16 222.916 72.16ZM222.916 70.464C223.502 70.464 223.961 70.2827 224.292 69.92C224.633 69.5467 224.804 68.9653 224.804 68.176V67.824C224.804 67.056 224.633 66.4853 224.292 66.112C223.95 65.728 223.492 65.536 222.916 65.536C222.329 65.536 221.865 65.7227 221.524 66.096C221.193 66.4587 221.028 67.0347 221.028 67.824V68.176C221.028 68.944 221.198 69.52 221.54 69.904C221.881 70.2773 222.34 70.464 222.916 70.464ZM228.353 64H229.793L229.953 64.96H229.985C230.635 64.2133 231.489 63.84 232.545 63.84C233.046 63.84 233.499 63.9253 233.905 64.096C234.321 64.256 234.673 64.5013 234.961 64.832C235.249 65.1627 235.473 65.5787 235.633 66.08C235.793 66.5707 235.873 67.152 235.873 67.824V68.176C235.873 69.4987 235.563 70.496 234.945 71.168C234.337 71.8293 233.537 72.16 232.545 72.16C232.086 72.16 231.649 72.0747 231.233 71.904C230.827 71.7333 230.497 71.4987 230.241 71.2H230.209V75.2H228.353V64ZM232.065 70.464C232.641 70.464 233.094 70.2827 233.425 69.92C233.755 69.5573 233.921 68.976 233.921 68.176V67.824C233.921 67.0453 233.75 66.4693 233.409 66.096C233.078 65.7227 232.63 65.536 232.065 65.536C231.489 65.536 231.035 65.7227 230.705 66.096C230.374 66.4587 230.209 67.04 230.209 67.84V68.192C230.209 68.96 230.374 69.5307 230.705 69.904C231.046 70.2773 231.499 70.464 232.065 70.464ZM240.838 72.16C239.632 72.16 238.688 71.8187 238.006 71.136C237.334 70.4427 236.998 69.456 236.998 68.176V67.824C236.998 67.1947 237.083 66.6347 237.254 66.144C237.435 65.6427 237.686 65.2213 238.006 64.88C238.336 64.5387 238.731 64.2827 239.19 64.112C239.659 63.9307 240.182 63.84 240.758 63.84C241.92 63.84 242.838 64.1867 243.51 64.88C244.182 65.5733 244.517 66.5813 244.517 67.904V68.576H238.87C238.923 69.28 239.099 69.792 239.398 70.112C239.696 70.432 240.15 70.592 240.758 70.592C241.718 70.592 242.304 70.2613 242.518 69.6H244.438C244.256 70.432 243.851 71.0667 243.222 71.504C242.603 71.9413 241.808 72.16 240.838 72.16ZM240.758 65.408C240.192 65.408 239.76 65.552 239.462 65.84C239.163 66.1173 238.971 66.5707 238.886 67.2H242.63C242.555 66.5707 242.368 66.1173 242.07 65.84C241.771 65.552 241.334 65.408 240.758 65.408ZM251.67 65.696H249.238V64H255.958V65.696H253.526V72H251.67V65.696ZM260.213 72.16C259.007 72.16 258.063 71.8187 257.381 71.136C256.709 70.4427 256.373 69.456 256.373 68.176V67.824C256.373 67.1947 256.458 66.6347 256.629 66.144C256.81 65.6533 257.066 65.2373 257.397 64.896C257.738 64.5547 258.143 64.2933 258.613 64.112C259.082 63.9307 259.615 63.84 260.213 63.84C261.418 63.84 262.357 64.1867 263.029 64.88C263.711 65.5627 264.053 66.544 264.053 67.824V68.176C264.053 68.8053 263.962 69.3653 263.781 69.856C263.61 70.3467 263.354 70.7627 263.013 71.104C262.682 71.4453 262.277 71.7067 261.797 71.888C261.327 72.0693 260.799 72.16 260.213 72.16ZM260.213 70.464C260.799 70.464 261.258 70.2827 261.589 69.92C261.93 69.5467 262.101 68.9653 262.101 68.176V67.824C262.101 67.056 261.93 66.4853 261.589 66.112C261.247 65.728 260.789 65.536 260.213 65.536C259.626 65.536 259.162 65.7227 258.821 66.096C258.49 66.4587 258.325 67.0347 258.325 67.824V68.176C258.325 68.944 258.495 69.52 258.837 69.904C259.178 70.2773 259.637 70.464 260.213 70.464ZM265.649 64H268.849C269.425 64 269.916 64.0533 270.321 64.16C270.727 64.2667 271.057 64.4213 271.313 64.624C271.569 64.816 271.756 65.0507 271.873 65.328C271.991 65.6053 272.049 65.9147 272.049 66.256C272.049 66.5867 271.964 66.8907 271.793 67.168C271.623 67.4347 271.383 67.6533 271.073 67.824V67.856C271.479 68.016 271.793 68.256 272.017 68.576C272.252 68.896 272.369 69.2587 272.369 69.664C272.369 70.3893 272.124 70.96 271.633 71.376C271.153 71.792 270.332 72 269.169 72H265.649V64ZM270.097 66.368C270.097 66.112 270.001 65.9147 269.809 65.776C269.628 65.6373 269.281 65.568 268.769 65.568H267.505V67.232H268.769C269.281 67.232 269.628 67.152 269.809 66.992C270.001 66.832 270.097 66.624 270.097 66.368ZM270.417 69.52C270.417 69.2427 270.316 69.024 270.113 68.864C269.921 68.6933 269.58 68.608 269.089 68.608H267.505V70.432H269.089C269.58 70.432 269.921 70.352 270.113 70.192C270.316 70.0213 270.417 69.7973 270.417 69.52ZM276.202 72.16C275.253 72.16 274.549 71.9467 274.09 71.52C273.631 71.0933 273.402 70.5013 273.402 69.744C273.402 69.3493 273.466 68.992 273.594 68.672C273.722 68.352 273.93 68.08 274.218 67.856C274.506 67.632 274.879 67.4613 275.338 67.344C275.797 67.216 276.351 67.152 277.002 67.152H278.586V66.72C278.586 66.304 278.463 65.984 278.218 65.76C277.973 65.5253 277.594 65.408 277.082 65.408C276.57 65.408 276.202 65.504 275.978 65.696C275.754 65.8773 275.621 66.112 275.578 66.4H273.722C273.743 66.0373 273.829 65.7013 273.978 65.392C274.127 65.072 274.341 64.8 274.618 64.576C274.895 64.3413 275.237 64.16 275.642 64.032C276.058 63.904 276.538 63.84 277.082 63.84C278.223 63.84 279.066 64.1013 279.61 64.624C280.165 65.1467 280.442 65.8987 280.442 66.88V72H279.002L278.826 70.96H278.794C278.485 71.344 278.106 71.6427 277.658 71.856C277.21 72.0587 276.725 72.16 276.202 72.16ZM276.522 70.592C276.821 70.592 277.093 70.544 277.338 70.448C277.594 70.352 277.813 70.224 277.994 70.064C278.175 69.8933 278.319 69.696 278.426 69.472C278.533 69.2373 278.586 68.9867 278.586 68.72V68.528H277.082C276.442 68.528 275.994 68.6347 275.738 68.848C275.482 69.0507 275.354 69.328 275.354 69.68C275.354 69.9467 275.445 70.1653 275.626 70.336C275.818 70.5067 276.117 70.592 276.522 70.592ZM282.446 64H283.886L284.046 64.96H284.078C284.729 64.2133 285.582 63.84 286.638 63.84C287.14 63.84 287.593 63.9253 287.998 64.096C288.414 64.256 288.766 64.5013 289.054 64.832C289.342 65.1627 289.566 65.5787 289.726 66.08C289.886 66.5707 289.966 67.152 289.966 67.824V68.176C289.966 69.4987 289.657 70.496 289.038 71.168C288.43 71.8293 287.63 72.16 286.638 72.16C286.18 72.16 285.742 72.0747 285.326 71.904C284.921 71.7333 284.59 71.4987 284.334 71.2H284.302V75.2H282.446V64ZM286.158 70.464C286.734 70.464 287.188 70.2827 287.518 69.92C287.849 69.5573 288.014 68.976 288.014 68.176V67.824C288.014 67.0453 287.844 66.4693 287.502 66.096C287.172 65.7227 286.724 65.536 286.158 65.536C285.582 65.536 285.129 65.7227 284.798 66.096C284.468 66.4587 284.302 67.04 284.302 67.84V68.192C284.302 68.96 284.468 69.5307 284.798 69.904C285.14 70.2773 285.593 70.464 286.158 70.464ZM293.811 72.16C292.862 72.16 292.158 71.9467 291.699 71.52C291.241 71.0933 291.011 70.5013 291.011 69.744C291.011 69.3493 291.075 68.992 291.203 68.672C291.331 68.352 291.539 68.08 291.827 67.856C292.115 67.632 292.489 67.4613 292.947 67.344C293.406 67.216 293.961 67.152 294.611 67.152H296.195V66.72C296.195 66.304 296.073 65.984 295.827 65.76C295.582 65.5253 295.203 65.408 294.691 65.408C294.179 65.408 293.811 65.504 293.587 65.696C293.363 65.8773 293.23 66.112 293.187 66.4H291.331C291.353 66.0373 291.438 65.7013 291.587 65.392C291.737 65.072 291.95 64.8 292.227 64.576C292.505 64.3413 292.846 64.16 293.251 64.032C293.667 63.904 294.147 63.84 294.691 63.84C295.833 63.84 296.675 64.1013 297.219 64.624C297.774 65.1467 298.051 65.8987 298.051 66.88V72H296.611L296.435 70.96H296.403C296.094 71.344 295.715 71.6427 295.267 71.856C294.819 72.0587 294.334 72.16 293.811 72.16ZM294.131 70.592C294.43 70.592 294.702 70.544 294.947 70.448C295.203 70.352 295.422 70.224 295.603 70.064C295.785 69.8933 295.929 69.696 296.035 69.472C296.142 69.2373 296.195 68.9867 296.195 68.72V68.528H294.691C294.051 68.528 293.603 68.6347 293.347 68.848C293.091 69.0507 292.963 69.328 292.963 69.68C292.963 69.9467 293.054 70.1653 293.235 70.336C293.427 70.5067 293.726 70.592 294.131 70.592Z" fill="#383838"/>
<circle cx="30" cy="54" r="30" fill="#0046BB"/>
<g clip-path="url(#clip0_31_98)">
<path d="M42.4599 52.6514L37.2363 56.9175C36.9225 57.1729 36.7842 57.5878 36.8799 57.9814L38.4597 64.4337C38.6938 65.4816 37.8959 66.3487 37.0023 66.3487C36.7363 66.3487 36.4544 66.2689 36.1937 66.0987L30.4808 62.5879C30.1403 62.3805 29.7148 62.3805 29.3743 62.5932L23.7305 66.104C23.4699 66.2795 23.188 66.354 22.9167 66.354C22.0018 66.354 21.1773 65.487 21.4645 64.4391L23.0443 57.9814C23.1401 57.5878 23.0018 57.1782 22.6933 56.9228L17.5388 52.6621C16.4803 51.7578 17.0867 50.0184 18.4431 49.9439L25.1189 49.4598C25.5178 49.4332 25.8636 49.1779 26.0125 48.8109L28.5658 42.6085C28.8318 41.9649 29.4169 41.6458 30.002 41.6458C30.5871 41.6458 31.1723 41.9649 31.4382 42.6085L33.9862 48.8056C34.1351 49.1726 34.4862 49.4226 34.8798 49.4545L41.5556 49.9386C42.9173 50.013 43.5184 51.7471 42.4599 52.6514Z" fill="white"/>
</g>
<defs>
<clipPath id="clip0_31_98">
<rect width="26" height="26" fill="white" transform="translate(17 41)"/>
</clipPath>
</defs>
</svg>
