<svg width="60" height="60" viewBox="0 0 60 60" fill="none" xmlns="http://www.w3.org/2000/svg">
<circle cx="30" cy="30" r="30" fill="#0046BB"/>
<path d="M31.6896 21.2132V19.1943H32.6111C33.217 19.1943 33.7083 18.703 33.7083 18.0971C33.7083 17.4913 33.2171 17 32.6111 17H27.3888C26.7829 17 26.2917 17.4913 26.2917 18.0971C26.2917 18.703 26.7829 19.1943 27.3888 19.1943H28.3104V21.2132C23.0672 22.0281 19.0414 26.5734 19.0414 32.0415C19.0414 38.0841 23.9574 43 30 43C36.0425 43 40.9585 38.0841 40.9585 32.0415C40.9586 26.5735 36.9328 22.0282 31.6896 21.2132ZM38.7287 31.2474C38.747 31.451 38.6789 31.6529 38.5411 31.8038C38.4033 31.9548 38.2083 32.0415 38.0039 32.0415H30.7279C30.3259 32.0415 30.0001 31.7157 30.0001 31.3137V24.0377C30.0001 23.8332 30.0862 23.6381 30.2372 23.5002C30.3883 23.3623 30.5904 23.2946 30.7941 23.3129C34.9944 23.6918 38.3497 27.0471 38.7287 31.2474Z" fill="white"/>
</svg>
