<svg width="370" height="108" viewBox="0 0 370 108" fill="none" xmlns="http://www.w3.org/2000/svg">
<path fill-rule="evenodd" clip-rule="evenodd" d="M30.0328 14C52.1091 14.0177 70 31.9195 70 54C70 76.0805 52.1091 93.9823 30.0328 94C30.5474 101.818 37.0518 108 45 108H355C363.284 108 370 101.284 370 93V15C370 6.71573 363.284 0 355 0H45C37.0518 0 30.5474 6.18198 30.0328 14Z" fill="#F2F6FC"/>
<path d="M100.6 60.16C99.864 60.16 99.1973 60.0427 98.6 59.808C98.0027 59.5627 97.4907 59.2107 97.064 58.752C96.6373 58.2827 96.3067 57.7067 96.072 57.024C95.8373 56.3307 95.72 55.5413 95.72 54.656V53.984C95.72 53.1413 95.8373 52.3893 96.072 51.728C96.3067 51.0667 96.6373 50.5067 97.064 50.048C97.4907 49.5893 98.0027 49.2427 98.6 49.008C99.208 48.7627 99.8747 48.64 100.6 48.64C101.261 48.64 101.853 48.736 102.376 48.928C102.909 49.1093 103.368 49.3653 103.752 49.696C104.136 50.0267 104.445 50.416 104.68 50.864C104.915 51.312 105.075 51.7973 105.16 52.32H103.08C102.92 51.7547 102.637 51.296 102.232 50.944C101.827 50.5813 101.283 50.4 100.6 50.4C99.7467 50.4 99.0533 50.6987 98.52 51.296C97.9973 51.8827 97.736 52.7787 97.736 53.984V54.656C97.736 55.296 97.8053 55.8507 97.944 56.32C98.0933 56.7893 98.2907 57.1787 98.536 57.488C98.792 57.7973 99.096 58.0267 99.448 58.176C99.8 58.3253 100.184 58.4 100.6 58.4C101.272 58.4 101.805 58.2133 102.2 57.84C102.605 57.4667 102.888 56.96 103.048 56.32H105.16C105.075 56.8853 104.915 57.4027 104.68 57.872C104.445 58.3413 104.136 58.7467 103.752 59.088C103.368 59.4293 102.909 59.696 102.376 59.888C101.853 60.0693 101.261 60.16 100.6 60.16ZM108.027 55.808L105.803 52H107.851L109.515 54.992H110.315V52H112.171V54.992H112.971L114.667 52H116.683L114.443 55.744L116.843 60H114.731L112.971 56.688H112.171V60H110.315V56.688H109.515L107.723 60H105.643L108.027 55.808ZM120.046 60.16C119.096 60.16 118.392 59.9467 117.934 59.52C117.475 59.0933 117.246 58.5013 117.246 57.744C117.246 57.3493 117.31 56.992 117.438 56.672C117.566 56.352 117.774 56.08 118.062 55.856C118.35 55.632 118.723 55.4613 119.182 55.344C119.64 55.216 120.195 55.152 120.846 55.152H122.43V54.72C122.43 54.304 122.307 53.984 122.062 53.76C121.816 53.5253 121.438 53.408 120.926 53.408C120.414 53.408 120.046 53.504 119.822 53.696C119.598 53.8773 119.464 54.112 119.422 54.4H117.566C117.587 54.0373 117.672 53.7013 117.822 53.392C117.971 53.072 118.184 52.8 118.462 52.576C118.739 52.3413 119.08 52.16 119.486 52.032C119.902 51.904 120.382 51.84 120.926 51.84C122.067 51.84 122.91 52.1013 123.454 52.624C124.008 53.1467 124.286 53.8987 124.286 54.88V60H122.846L122.67 58.96H122.638C122.328 59.344 121.95 59.6427 121.502 59.856C121.054 60.0587 120.568 60.16 120.046 60.16ZM120.366 58.592C120.664 58.592 120.936 58.544 121.182 58.448C121.438 58.352 121.656 58.224 121.838 58.064C122.019 57.8933 122.163 57.696 122.27 57.472C122.376 57.2373 122.43 56.9867 122.43 56.72V56.528H120.926C120.286 56.528 119.838 56.6347 119.582 56.848C119.326 57.0507 119.198 57.328 119.198 57.68C119.198 57.9467 119.288 58.1653 119.47 58.336C119.662 58.5067 119.96 58.592 120.366 58.592ZM127.53 53.696H125.098V52H131.818V53.696H129.386V60H127.53V53.696ZM140.448 52H142.304V60H140.448V52ZM133.024 52H134.88V54.4H136.224C137.376 54.4 138.224 54.6507 138.768 55.152C139.312 55.6533 139.584 56.336 139.584 57.2C139.584 58.064 139.307 58.7467 138.752 59.248C138.208 59.7493 137.366 60 136.224 60H133.024V52ZM134.88 55.936V58.464H136.144C136.678 58.464 137.056 58.3573 137.28 58.144C137.515 57.9307 137.632 57.616 137.632 57.2C137.632 56.7947 137.515 56.4853 137.28 56.272C137.046 56.048 136.667 55.936 136.144 55.936H134.88ZM147.744 60.16C146.538 60.16 145.594 59.8187 144.912 59.136C144.24 58.4427 143.904 57.456 143.904 56.176V55.824C143.904 55.1947 143.989 54.6347 144.16 54.144C144.341 53.6427 144.592 53.2213 144.912 52.88C145.242 52.5387 145.637 52.2827 146.096 52.112C146.565 51.9307 147.088 51.84 147.664 51.84C148.826 51.84 149.744 52.1867 150.416 52.88C151.088 53.5733 151.424 54.5813 151.424 55.904V56.576H145.776C145.829 57.28 146.005 57.792 146.304 58.112C146.602 58.432 147.056 58.592 147.664 58.592C148.624 58.592 149.21 58.2613 149.424 57.6H151.344C151.162 58.432 150.757 59.0667 150.128 59.504C149.509 59.9413 148.714 60.16 147.744 60.16ZM147.664 53.408C147.098 53.408 146.666 53.552 146.368 53.84C146.069 54.1173 145.877 54.5707 145.792 55.2H149.536C149.461 54.5707 149.274 54.1173 148.976 53.84C148.677 53.552 148.24 53.408 147.664 53.408ZM160.224 60.16C159.083 60.16 158.182 59.8187 157.52 59.136C156.87 58.4427 156.544 57.4293 156.544 56.096V55.744C156.544 55.1253 156.63 54.576 156.8 54.096C156.971 53.616 157.216 53.2107 157.536 52.88C157.856 52.5387 158.24 52.2827 158.688 52.112C159.147 51.9307 159.659 51.84 160.224 51.84C160.747 51.84 161.211 51.9093 161.616 52.048C162.032 52.1867 162.384 52.3787 162.672 52.624C162.971 52.8693 163.206 53.1573 163.376 53.488C163.558 53.8187 163.68 54.176 163.744 54.56H161.792C161.675 54.2507 161.499 54.0053 161.264 53.824C161.04 53.632 160.72 53.536 160.304 53.536C159.792 53.536 159.36 53.7067 159.008 54.048C158.667 54.3893 158.496 54.9547 158.496 55.744V56.096C158.496 56.5333 158.539 56.9013 158.624 57.2C158.72 57.4987 158.848 57.744 159.008 57.936C159.179 58.1173 159.371 58.2507 159.584 58.336C159.808 58.4213 160.048 58.464 160.304 58.464C160.72 58.464 161.04 58.3627 161.264 58.16C161.499 57.9573 161.675 57.664 161.792 57.28H163.744C163.68 57.7067 163.558 58.096 163.376 58.448C163.206 58.8 162.971 59.104 162.672 59.36C162.384 59.616 162.032 59.8133 161.616 59.952C161.211 60.0907 160.747 60.16 160.224 60.16ZM165.103 52H166.543L166.703 52.96H166.735C167.385 52.2133 168.239 51.84 169.295 51.84C169.796 51.84 170.249 51.9253 170.655 52.096C171.071 52.256 171.423 52.5013 171.711 52.832C171.999 53.1627 172.223 53.5787 172.383 54.08C172.543 54.5707 172.623 55.152 172.623 55.824V56.176C172.623 57.4987 172.313 58.496 171.695 59.168C171.087 59.8293 170.287 60.16 169.295 60.16C168.836 60.16 168.399 60.0747 167.983 59.904C167.577 59.7333 167.247 59.4987 166.991 59.2H166.959V63.2H165.103V52ZM168.815 58.464C169.391 58.464 169.844 58.2827 170.175 57.92C170.505 57.5573 170.671 56.976 170.671 56.176V55.824C170.671 55.0453 170.5 54.4693 170.159 54.096C169.828 53.7227 169.38 53.536 168.815 53.536C168.239 53.536 167.785 53.7227 167.455 54.096C167.124 54.4587 166.959 55.04 166.959 55.84V56.192C166.959 56.96 167.124 57.5307 167.455 57.904C167.796 58.2773 168.249 58.464 168.815 58.464ZM177.588 60.16C176.382 60.16 175.438 59.8187 174.756 59.136C174.084 58.4427 173.748 57.456 173.748 56.176V55.824C173.748 55.1947 173.833 54.6347 174.004 54.144C174.185 53.6533 174.441 53.2373 174.772 52.896C175.113 52.5547 175.518 52.2933 175.988 52.112C176.457 51.9307 176.99 51.84 177.588 51.84C178.793 51.84 179.732 52.1867 180.404 52.88C181.086 53.5627 181.428 54.544 181.428 55.824V56.176C181.428 56.8053 181.337 57.3653 181.156 57.856C180.985 58.3467 180.729 58.7627 180.388 59.104C180.057 59.4453 179.652 59.7067 179.172 59.888C178.702 60.0693 178.174 60.16 177.588 60.16ZM177.588 58.464C178.174 58.464 178.633 58.2827 178.964 57.92C179.305 57.5467 179.476 56.9653 179.476 56.176V55.824C179.476 55.056 179.305 54.4853 178.964 54.112C178.622 53.728 178.164 53.536 177.588 53.536C177.001 53.536 176.537 53.7227 176.196 54.096C175.865 54.4587 175.7 55.0347 175.7 55.824V56.176C175.7 56.944 175.87 57.52 176.212 57.904C176.553 58.2773 177.012 58.464 177.588 58.464ZM183.024 52H184.88V54.992H185.68L187.664 52H189.744L187.168 55.744L190.064 60H187.856L185.68 56.688H184.88V60H183.024V52ZM191.181 52H193.037V57.6H193.069L195.981 52H198.381V60H196.525V54.4H196.493L193.581 60H191.181V52ZM204.462 52H211.342V60H209.486V53.696H206.318V60H204.462V52ZM216.775 60.16C215.57 60.16 214.626 59.8187 213.943 59.136C213.271 58.4427 212.935 57.456 212.935 56.176V55.824C212.935 55.1947 213.02 54.6347 213.191 54.144C213.372 53.6533 213.628 53.2373 213.959 52.896C214.3 52.5547 214.706 52.2933 215.175 52.112C215.644 51.9307 216.178 51.84 216.775 51.84C217.98 51.84 218.919 52.1867 219.591 52.88C220.274 53.5627 220.615 54.544 220.615 55.824V56.176C220.615 56.8053 220.524 57.3653 220.343 57.856C220.172 58.3467 219.916 58.7627 219.575 59.104C219.244 59.4453 218.839 59.7067 218.359 59.888C217.89 60.0693 217.362 60.16 216.775 60.16ZM216.775 58.464C217.362 58.464 217.82 58.2827 218.151 57.92C218.492 57.5467 218.663 56.9653 218.663 56.176V55.824C218.663 55.056 218.492 54.4853 218.151 54.112C217.81 53.728 217.351 53.536 216.775 53.536C216.188 53.536 215.724 53.7227 215.383 54.096C215.052 54.4587 214.887 55.0347 214.887 55.824V56.176C214.887 56.944 215.058 57.52 215.399 57.904C215.74 58.2773 216.199 58.464 216.775 58.464ZM225.412 60.16C224.271 60.16 223.369 59.8187 222.708 59.136C222.057 58.4427 221.732 57.4293 221.732 56.096V55.744C221.732 55.1253 221.817 54.576 221.988 54.096C222.159 53.616 222.404 53.2107 222.724 52.88C223.044 52.5387 223.428 52.2827 223.876 52.112C224.335 51.9307 224.847 51.84 225.412 51.84C225.935 51.84 226.399 51.9093 226.804 52.048C227.22 52.1867 227.572 52.3787 227.86 52.624C228.159 52.8693 228.393 53.1573 228.564 53.488C228.745 53.8187 228.868 54.176 228.932 54.56H226.98C226.863 54.2507 226.687 54.0053 226.452 53.824C226.228 53.632 225.908 53.536 225.492 53.536C224.98 53.536 224.548 53.7067 224.196 54.048C223.855 54.3893 223.684 54.9547 223.684 55.744V56.096C223.684 56.5333 223.727 56.9013 223.812 57.2C223.908 57.4987 224.036 57.744 224.196 57.936C224.367 58.1173 224.559 58.2507 224.772 58.336C224.996 58.4213 225.236 58.464 225.492 58.464C225.908 58.464 226.228 58.3627 226.452 58.16C226.687 57.9573 226.863 57.664 226.98 57.28H228.932C228.868 57.7067 228.745 58.096 228.564 58.448C228.393 58.8 228.159 59.104 227.86 59.36C227.572 59.616 227.22 59.8133 226.804 59.952C226.399 60.0907 225.935 60.16 225.412 60.16ZM231.842 53.696H229.41V52H236.13V53.696H233.698V60H231.842V53.696ZM239.421 60.16C238.471 60.16 237.767 59.9467 237.309 59.52C236.85 59.0933 236.621 58.5013 236.621 57.744C236.621 57.3493 236.685 56.992 236.813 56.672C236.941 56.352 237.149 56.08 237.437 55.856C237.725 55.632 238.098 55.4613 238.557 55.344C239.015 55.216 239.57 55.152 240.221 55.152H241.805V54.72C241.805 54.304 241.682 53.984 241.437 53.76C241.191 53.5253 240.813 53.408 240.301 53.408C239.789 53.408 239.421 53.504 239.197 53.696C238.973 53.8773 238.839 54.112 238.797 54.4H236.941C236.962 54.0373 237.047 53.7013 237.197 53.392C237.346 53.072 237.559 52.8 237.837 52.576C238.114 52.3413 238.455 52.16 238.861 52.032C239.277 51.904 239.757 51.84 240.301 51.84C241.442 51.84 242.285 52.1013 242.829 52.624C243.383 53.1467 243.661 53.8987 243.661 54.88V60H242.221L242.045 58.96H242.013C241.703 59.344 241.325 59.6427 240.877 59.856C240.429 60.0587 239.943 60.16 239.421 60.16ZM239.741 58.592C240.039 58.592 240.311 58.544 240.557 58.448C240.813 58.352 241.031 58.224 241.213 58.064C241.394 57.8933 241.538 57.696 241.645 57.472C241.751 57.2373 241.805 56.9867 241.805 56.72V56.528H240.301C239.661 56.528 239.213 56.6347 238.957 56.848C238.701 57.0507 238.573 57.328 238.573 57.68C238.573 57.9467 238.663 58.1653 238.845 58.336C239.037 58.5067 239.335 58.592 239.741 58.592ZM245.665 52H248.865C249.441 52 249.932 52.0533 250.337 52.16C250.742 52.2667 251.073 52.4213 251.329 52.624C251.585 52.816 251.772 53.0507 251.889 53.328C252.006 53.6053 252.065 53.9147 252.065 54.256C252.065 54.5867 251.98 54.8907 251.809 55.168C251.638 55.4347 251.398 55.6533 251.089 55.824V55.856C251.494 56.016 251.809 56.256 252.033 56.576C252.268 56.896 252.385 57.2587 252.385 57.664C252.385 58.3893 252.14 58.96 251.649 59.376C251.169 59.792 250.348 60 249.185 60H245.665V52ZM250.113 54.368C250.113 54.112 250.017 53.9147 249.825 53.776C249.644 53.6373 249.297 53.568 248.785 53.568H247.521V55.232H248.785C249.297 55.232 249.644 55.152 249.825 54.992C250.017 54.832 250.113 54.624 250.113 54.368ZM250.433 57.52C250.433 57.2427 250.332 57.024 250.129 56.864C249.937 56.6933 249.596 56.608 249.105 56.608H247.521V58.432H249.105C249.596 58.432 249.937 58.352 250.129 58.192C250.332 58.0213 250.433 57.7973 250.433 57.52ZM253.978 52H255.834V54.992H256.634L258.618 52H260.698L258.122 55.744L261.017 60H258.81L256.634 56.688H255.834V60H253.978V52ZM262.134 52H263.99V57.6H264.022L266.934 52H269.334V60H267.478V54.4H267.446L264.534 60H262.134V52Z" fill="#383838"/>
<circle cx="30" cy="54" r="30" fill="#0046BB"/>
<path d="M31.6896 45.2132V43.1943H32.6111C33.217 43.1943 33.7083 42.703 33.7083 42.0971C33.7083 41.4913 33.2171 41 32.6111 41H27.3888C26.7829 41 26.2917 41.4913 26.2917 42.0971C26.2917 42.703 26.7829 43.1943 27.3888 43.1943H28.3104V45.2132C23.0672 46.0281 19.0414 50.5734 19.0414 56.0415C19.0414 62.0841 23.9574 67 30 67C36.0425 67 40.9585 62.0841 40.9585 56.0415C40.9586 50.5735 36.9328 46.0282 31.6896 45.2132ZM38.7287 55.2474C38.747 55.451 38.6789 55.6529 38.5411 55.8038C38.4033 55.9548 38.2083 56.0415 38.0039 56.0415H30.7279C30.3259 56.0415 30.0001 55.7157 30.0001 55.3137V48.0377C30.0001 47.8332 30.0862 47.6381 30.2372 47.5002C30.3883 47.3623 30.5904 47.2946 30.7941 47.3129C34.9944 47.6918 38.3497 51.0471 38.7287 55.2474Z" fill="white"/>
</svg>
