<svg width="320" height="212" viewBox="0 0 320 212" fill="none" xmlns="http://www.w3.org/2000/svg">
<path d="M313.5 113.5C313.5 140.466 296.077 164.955 267.75 182.727C239.43 200.494 200.275 211.5 157 211.5C113.725 211.5 74.57 200.494 46.25 182.727C17.9231 164.955 0.5 140.466 0.5 113.5C0.5 86.5337 17.9231 62.0455 46.25 44.2736C74.57 26.5059 113.725 15.5001 157 15.5001C200.275 15.5001 239.43 26.5059 267.75 44.2736C296.077 62.0455 313.5 86.5337 313.5 113.5Z" stroke="#0046BB"/>
<path d="M319.5 98.5C319.5 125.466 302.077 149.955 273.75 167.726C245.43 185.494 206.275 196.5 163 196.5C119.725 196.5 80.57 185.494 52.25 167.726C23.9231 149.955 6.5 125.466 6.5 98.5C6.5 71.5337 23.9231 47.0454 52.25 29.2735C80.57 11.5059 119.725 0.5 163 0.5C206.275 0.5 245.43 11.5059 273.75 29.2735C302.077 47.0454 319.5 71.5337 319.5 98.5Z" stroke="#0046BB"/>
</svg>
