<svg width="60" height="60" viewBox="0 0 60 60" fill="none" xmlns="http://www.w3.org/2000/svg">
<circle cx="30" cy="30" r="30" fill="#0046BB"/>
<path d="M41.2915 20.6388C41.2448 20.3036 41.0036 20.0278 40.6776 19.9372L30.2277 17.0311C30.0787 16.9896 29.9214 16.9896 29.7723 17.0311L19.3224 19.9372C18.9964 20.0278 18.7552 20.3035 18.7085 20.6388C18.6479 21.0746 17.2652 31.3722 20.8118 36.495C24.3541 41.6116 29.5798 42.9228 29.8005 42.9762C29.8661 42.992 29.9329 42.9998 30 42.9998C30.0671 42.9998 30.1339 42.9919 30.1995 42.9762C30.4203 42.9228 35.646 41.6116 39.1883 36.495C42.7348 31.3723 41.3521 21.0747 41.2915 20.6388ZM36.7388 26.6506L29.611 33.7785C29.4451 33.9444 29.2276 34.0274 29.0102 34.0274C28.7928 34.0274 28.5753 33.9445 28.4094 33.7785L24.0023 29.3714C23.8429 29.2121 23.7534 28.996 23.7534 28.7706C23.7534 28.5453 23.843 28.3291 24.0023 28.1699L24.8774 27.2948C25.2092 26.9631 25.7472 26.963 26.0789 27.2948L29.0102 30.2261L34.6622 24.5739C34.8215 24.4145 35.0377 24.325 35.263 24.325C35.4883 24.325 35.7045 24.4145 35.8638 24.5739L36.7388 25.449C37.0706 25.7808 37.0706 26.3188 36.7388 26.6506Z" fill="white"/>
</svg>
