<svg width="976" height="876" viewBox="0 0 976 876" fill="none" xmlns="http://www.w3.org/2000/svg">
<path d="M836.669 258.229C871.189 318.02 863.849 394.518 823.93 469.925C784.014 545.325 711.555 619.56 616 674.729C520.444 729.898 419.926 755.531 334.67 752.4C249.406 749.268 179.487 717.375 144.966 657.584C110.446 597.793 117.786 521.295 157.706 445.888C197.621 370.489 270.08 296.254 365.635 241.085C461.191 185.916 561.709 160.282 646.965 163.414C732.229 166.546 802.149 198.439 836.669 258.229Z" stroke="#E6EDF8"/>
<path d="M830.802 217.505C865.322 277.296 857.982 353.794 818.062 429.201C778.146 504.6 705.688 578.835 610.132 634.004C514.577 689.173 414.059 714.807 328.803 711.675C243.538 708.543 173.619 676.65 139.099 616.86C104.579 557.069 111.919 480.571 151.838 405.164C191.754 329.764 264.213 255.529 359.768 200.36C455.324 145.191 555.842 119.558 641.098 122.689C726.362 125.821 796.281 157.714 830.802 217.505Z" stroke="#E6EDF8"/>
</svg>
