<svg width="370" height="108" viewBox="0 0 370 108" fill="none" xmlns="http://www.w3.org/2000/svg">
<path fill-rule="evenodd" clip-rule="evenodd" d="M30.0328 14C52.1091 14.0177 70 31.9195 70 54C70 76.0805 52.1091 93.9823 30.0328 94C30.5474 101.818 37.0518 108 45 108H355C363.284 108 370 101.284 370 93V15C370 6.71573 363.284 0 355 0H45C37.0518 0 30.5474 6.18198 30.0328 14Z" fill="#0046BB"/>
<path d="M100.68 60.16C99.9227 60.16 99.24 60.0427 98.632 59.808C98.024 59.5627 97.5013 59.2107 97.064 58.752C96.6373 58.2827 96.3067 57.7067 96.072 57.024C95.8373 56.3307 95.72 55.5413 95.72 54.656V53.984C95.72 53.1413 95.8373 52.3893 96.072 51.728C96.3067 51.0667 96.6373 50.5067 97.064 50.048C97.5013 49.5893 98.024 49.2427 98.632 49.008C99.2507 48.7627 99.9333 48.64 100.68 48.64C101.427 48.64 102.104 48.7627 102.712 49.008C103.331 49.2427 103.853 49.5893 104.28 50.048C104.717 50.496 105.053 51.056 105.288 51.728C105.523 52.3893 105.64 53.1413 105.64 53.984V54.656C105.64 55.5413 105.523 56.3253 105.288 57.008C105.053 57.6907 104.717 58.2667 104.28 58.736C103.853 59.2053 103.331 59.5627 102.712 59.808C102.104 60.0427 101.427 60.16 100.68 60.16ZM100.68 58.4C101.565 58.4 102.275 58.1013 102.808 57.504C103.352 56.9067 103.624 55.9573 103.624 54.656V53.984C103.624 52.7893 103.352 51.8933 102.808 51.296C102.264 50.6987 101.555 50.4 100.68 50.4C99.784 50.4 99.0693 50.6933 98.536 51.28C98.0027 51.8667 97.736 52.768 97.736 53.984V54.656C97.736 55.936 98.0027 56.88 98.536 57.488C99.08 58.096 99.7947 58.4 100.68 58.4ZM110.599 60.16C109.458 60.16 108.557 59.8187 107.895 59.136C107.245 58.4427 106.919 57.4293 106.919 56.096V55.744C106.919 55.1253 107.005 54.576 107.175 54.096C107.346 53.616 107.591 53.2107 107.911 52.88C108.231 52.5387 108.615 52.2827 109.063 52.112C109.522 51.9307 110.034 51.84 110.599 51.84C111.122 51.84 111.586 51.9093 111.991 52.048C112.407 52.1867 112.759 52.3787 113.047 52.624C113.346 52.8693 113.581 53.1573 113.751 53.488C113.933 53.8187 114.055 54.176 114.119 54.56H112.167C112.05 54.2507 111.874 54.0053 111.639 53.824C111.415 53.632 111.095 53.536 110.679 53.536C110.167 53.536 109.735 53.7067 109.383 54.048C109.042 54.3893 108.871 54.9547 108.871 55.744V56.096C108.871 56.5333 108.914 56.9013 108.999 57.2C109.095 57.4987 109.223 57.744 109.383 57.936C109.554 58.1173 109.746 58.2507 109.959 58.336C110.183 58.4213 110.423 58.464 110.679 58.464C111.095 58.464 111.415 58.3627 111.639 58.16C111.874 57.9573 112.05 57.664 112.167 57.28H114.119C114.055 57.7067 113.933 58.096 113.751 58.448C113.581 58.8 113.346 59.104 113.047 59.36C112.759 59.616 112.407 59.8133 111.991 59.952C111.586 60.0907 111.122 60.16 110.599 60.16ZM117.03 53.696H114.598V52H121.318V53.696H118.886V60H117.03V53.696ZM124.608 60.16C123.659 60.16 122.955 59.9467 122.496 59.52C122.037 59.0933 121.808 58.5013 121.808 57.744C121.808 57.3493 121.872 56.992 122 56.672C122.128 56.352 122.336 56.08 122.624 55.856C122.912 55.632 123.285 55.4613 123.744 55.344C124.203 55.216 124.757 55.152 125.408 55.152H126.992V54.72C126.992 54.304 126.869 53.984 126.624 53.76C126.379 53.5253 126 53.408 125.488 53.408C124.976 53.408 124.608 53.504 124.384 53.696C124.16 53.8773 124.027 54.112 123.984 54.4H122.128C122.149 54.0373 122.235 53.7013 122.384 53.392C122.533 53.072 122.747 52.8 123.024 52.576C123.301 52.3413 123.643 52.16 124.048 52.032C124.464 51.904 124.944 51.84 125.488 51.84C126.629 51.84 127.472 52.1013 128.016 52.624C128.571 53.1467 128.848 53.8987 128.848 54.88V60H127.408L127.232 58.96H127.2C126.891 59.344 126.512 59.6427 126.064 59.856C125.616 60.0587 125.131 60.16 124.608 60.16ZM124.928 58.592C125.227 58.592 125.499 58.544 125.744 58.448C126 58.352 126.219 58.224 126.4 58.064C126.581 57.8933 126.725 57.696 126.832 57.472C126.939 57.2373 126.992 56.9867 126.992 56.72V56.528H125.488C124.848 56.528 124.4 56.6347 124.144 56.848C123.888 57.0507 123.76 57.328 123.76 57.68C123.76 57.9467 123.851 58.1653 124.032 58.336C124.224 58.5067 124.523 58.592 124.928 58.592ZM130.853 52H134.053C134.629 52 135.119 52.0533 135.525 52.16C135.93 52.2667 136.261 52.4213 136.517 52.624C136.773 52.816 136.959 53.0507 137.077 53.328C137.194 53.6053 137.253 53.9147 137.253 54.256C137.253 54.5867 137.167 54.8907 136.997 55.168C136.826 55.4347 136.586 55.6533 136.277 55.824V55.856C136.682 56.016 136.997 56.256 137.221 56.576C137.455 56.896 137.573 57.2587 137.573 57.664C137.573 58.3893 137.327 58.96 136.837 59.376C136.357 59.792 135.535 60 134.373 60H130.853V52ZM135.301 54.368C135.301 54.112 135.205 53.9147 135.013 53.776C134.831 53.6373 134.485 53.568 133.973 53.568H132.709V55.232H133.973C134.485 55.232 134.831 55.152 135.013 54.992C135.205 54.832 135.301 54.624 135.301 54.368ZM135.621 57.52C135.621 57.2427 135.519 57.024 135.317 56.864C135.125 56.6933 134.783 56.608 134.293 56.608H132.709V58.432H134.293C134.783 58.432 135.125 58.352 135.317 58.192C135.519 58.0213 135.621 57.7973 135.621 57.52ZM139.165 52H141.021V57.6H141.053L143.965 52H146.365V60H144.509V54.4H144.477L141.565 60H139.165V52ZM149.998 53.696H147.566V52H154.286V53.696H151.854V60H149.998V53.696ZM155.493 52H157.349V54.4H158.693C159.845 54.4 160.693 54.6507 161.237 55.152C161.781 55.6533 162.053 56.336 162.053 57.2C162.053 58.064 161.776 58.7467 161.221 59.248C160.677 59.7493 159.834 60 158.693 60H155.493V52ZM157.349 55.936V58.464H158.613C159.146 58.464 159.525 58.3573 159.749 58.144C159.984 57.9307 160.101 57.616 160.101 57.2C160.101 56.7947 159.984 56.4853 159.749 56.272C159.514 56.048 159.136 55.936 158.613 55.936H157.349ZM170.137 60.16C168.964 60.16 168.1 59.9147 167.545 59.424C167.001 58.9333 166.692 58.2187 166.617 57.28H168.569C168.654 57.7387 168.814 58.08 169.049 58.304C169.284 58.5173 169.646 58.624 170.137 58.624C170.649 58.624 171.012 58.5387 171.225 58.368C171.438 58.1867 171.545 57.9467 171.545 57.648C171.545 57.36 171.438 57.1307 171.225 56.96C171.012 56.7787 170.649 56.688 170.137 56.688H169.257V55.152H170.137C170.542 55.152 170.836 55.072 171.017 54.912C171.209 54.752 171.305 54.5387 171.305 54.272C171.305 53.9947 171.209 53.776 171.017 53.616C170.836 53.456 170.542 53.376 170.137 53.376C169.742 53.376 169.444 53.472 169.241 53.664C169.038 53.856 168.894 54.1547 168.809 54.56H166.857C166.942 53.6853 167.241 53.0133 167.753 52.544C168.265 52.0747 169.06 51.84 170.137 51.84C171.214 51.84 172.004 52.064 172.505 52.512C173.006 52.9493 173.257 53.52 173.257 54.224C173.257 54.9493 172.921 55.4933 172.249 55.856V55.888C172.654 56.0693 172.964 56.3147 173.177 56.624C173.39 56.9227 173.497 57.2747 173.497 57.68C173.497 58.416 173.23 59.0133 172.697 59.472C172.174 59.9307 171.321 60.16 170.137 60.16ZM177.343 60.16C176.393 60.16 175.689 59.9467 175.231 59.52C174.772 59.0933 174.543 58.5013 174.543 57.744C174.543 57.3493 174.607 56.992 174.735 56.672C174.863 56.352 175.071 56.08 175.359 55.856C175.647 55.632 176.02 55.4613 176.479 55.344C176.937 55.216 177.492 55.152 178.143 55.152H179.727V54.72C179.727 54.304 179.604 53.984 179.359 53.76C179.113 53.5253 178.735 53.408 178.223 53.408C177.711 53.408 177.343 53.504 177.119 53.696C176.895 53.8773 176.761 54.112 176.719 54.4H174.863C174.884 54.0373 174.969 53.7013 175.118 53.392C175.268 53.072 175.481 52.8 175.759 52.576C176.036 52.3413 176.377 52.16 176.783 52.032C177.199 51.904 177.679 51.84 178.223 51.84C179.364 51.84 180.207 52.1013 180.751 52.624C181.305 53.1467 181.583 53.8987 181.583 54.88V60H180.143L179.967 58.96H179.935C179.625 59.344 179.247 59.6427 178.799 59.856C178.351 60.0587 177.865 60.16 177.343 60.16ZM177.663 58.592C177.961 58.592 178.233 58.544 178.479 58.448C178.735 58.352 178.953 58.224 179.135 58.064C179.316 57.8933 179.46 57.696 179.567 57.472C179.673 57.2373 179.727 56.9867 179.727 56.72V56.528H178.223C177.583 56.528 177.135 56.6347 176.879 56.848C176.623 57.0507 176.495 57.328 176.495 57.68C176.495 57.9467 176.585 58.1653 176.767 58.336C176.959 58.5067 177.257 58.592 177.663 58.592ZM184.579 57.056C184.088 56.8427 183.731 56.5387 183.507 56.144C183.294 55.7387 183.187 55.2587 183.187 54.704C183.187 54.2773 183.251 53.8987 183.379 53.568C183.507 53.2267 183.71 52.944 183.987 52.72C184.275 52.4853 184.643 52.3093 185.091 52.192C185.539 52.064 186.078 52 186.707 52H189.587V60H187.731V57.408H186.707H186.355L184.947 60H182.867L184.579 57.056ZM185.139 54.704C185.139 55.0667 185.256 55.3493 185.491 55.552C185.736 55.744 186.168 55.84 186.787 55.84H187.731V53.568H186.787C186.168 53.568 185.736 53.6693 185.491 53.872C185.256 54.064 185.139 54.3413 185.139 54.704ZM191.665 52H194.865C195.441 52 195.932 52.0533 196.337 52.16C196.742 52.2667 197.073 52.4213 197.329 52.624C197.585 52.816 197.772 53.0507 197.889 53.328C198.006 53.6053 198.065 53.9147 198.065 54.256C198.065 54.5867 197.98 54.8907 197.809 55.168C197.638 55.4347 197.398 55.6533 197.089 55.824V55.856C197.494 56.016 197.809 56.256 198.033 56.576C198.268 56.896 198.385 57.2587 198.385 57.664C198.385 58.3893 198.14 58.96 197.649 59.376C197.169 59.792 196.348 60 195.185 60H191.665V52ZM196.113 54.368C196.113 54.112 196.017 53.9147 195.825 53.776C195.644 53.6373 195.297 53.568 194.785 53.568H193.521V55.232H194.785C195.297 55.232 195.644 55.152 195.825 54.992C196.017 54.832 196.113 54.624 196.113 54.368ZM196.433 57.52C196.433 57.2427 196.332 57.024 196.129 56.864C195.937 56.6933 195.596 56.608 195.105 56.608H193.521V58.432H195.105C195.596 58.432 195.937 58.352 196.129 58.192C196.332 58.0213 196.433 57.7973 196.433 57.52ZM199.978 52H201.834V54.992H202.634L204.618 52H206.698L204.122 55.744L207.017 60H204.81L202.634 56.688H201.834V60H199.978V52ZM210.578 60L207.33 52H209.346L211.538 57.696H211.57L213.602 52H215.49L211.25 63.2H209.362L210.578 60Z" fill="white"/>
<circle cx="30" cy="54" r="30" fill="white"/>
<g clip-path="url(#clip0_31_146)">
<path d="M30.0001 41C23.0151 41 17.3533 46.6623 17.3533 53.6468C17.3533 56.6241 18.3885 59.3542 20.1116 61.5132C20.8099 62.3854 21.1707 63.7803 20.5344 64.603C20.0801 65.1915 19.5796 65.5937 19.0395 65.6654C17.2783 65.9007 19.6861 68.0091 23.8139 66.3995C24.8545 65.9936 26.4739 65.8333 27.5699 66.0523C28.3552 66.2099 29.1676 66.2936 30.0006 66.2936C36.9856 66.2936 42.6474 60.6318 42.6474 53.6473C42.6474 46.6629 36.9845 41 30.0001 41Z" fill="#0046BB"/>
</g>
<defs>
<clipPath id="clip0_31_146">
<rect width="26" height="26" fill="white" transform="translate(17 41)"/>
</clipPath>
</defs>
</svg>
