<svg width="22" height="22" viewBox="0 0 22 22" fill="none" xmlns="http://www.w3.org/2000/svg">
<circle cx="11" cy="11" r="11" fill="#0046BB"/>
<path fill-rule="evenodd" clip-rule="evenodd" d="M13.4697 6.5C14.1402 6.5 14.7852 6.765 15.2597 7.2405C15.7347 7.715 16.0002 8.355 16.0002 9.025V12.975C16.0002 14.37 14.8652 15.5 13.4697 15.5H8.53018C7.13468 15.5 6.00018 14.37 6.00018 12.975V9.025C6.00018 7.63 7.12968 6.5 8.53018 6.5H13.4697ZM14.2652 9.77L14.3052 9.73C14.4247 9.585 14.4247 9.375 14.2997 9.23C14.2302 9.1555 14.1347 9.11 14.0352 9.1C13.9302 9.0945 13.8302 9.13 13.7547 9.2L11.5002 11C11.2102 11.2405 10.7947 11.2405 10.5002 11L8.25018 9.2C8.09468 9.085 7.87968 9.1 7.75018 9.235C7.61518 9.37 7.60018 9.585 7.71468 9.735L7.78018 9.8L10.0552 11.575C10.3352 11.795 10.6747 11.915 11.0302 11.915C11.3847 11.915 11.7302 11.795 12.0097 11.575L14.2652 9.77Z" fill="white"/>
</svg>
