<svg width="60" height="60" viewBox="0 0 60 60" fill="none" xmlns="http://www.w3.org/2000/svg">
<circle cx="30" cy="29.9973" r="30" fill="#0046BB"/>
<g clip-path="url(#clip0_31_128)">
<path d="M33.6562 29.1848C35.6755 29.1848 37.3125 27.5479 37.3125 25.5286C37.3125 23.5093 35.6755 21.8723 33.6562 21.8723C31.637 21.8723 30 23.5093 30 25.5286C30 27.5479 31.637 29.1848 33.6562 29.1848Z" fill="white"/>
<path d="M41.2938 30.4036C41.1313 30.1598 40.8875 29.9973 40.5625 29.9973C38.775 29.9973 37.0688 30.8098 36.0125 32.2723L35.2813 33.2473C34.3875 34.3036 33.0063 34.8723 31.625 34.8723H29.1875C28.7 34.8723 28.375 34.5473 28.375 34.0598C28.375 33.5723 28.7 33.2473 29.1875 33.2473H30.7313C32.0313 33.2473 33.25 32.1911 33.25 30.8911V30.8098C33.25 30.4036 32.8438 29.9973 32.4375 29.9973H27.4813C24.5563 29.9973 22.2 31.2973 20.9 33.4098L18.7063 36.8223C18.5438 37.0661 18.5438 37.3911 18.7063 37.6348L21.1438 41.6973C21.225 41.8598 21.4688 42.0223 21.6313 42.1036C21.7125 42.1036 21.7125 42.1036 21.7938 42.1036C21.9563 42.1036 22.1188 42.0223 22.2813 41.9411C25.3688 39.9098 28.9438 38.8536 32.6 38.8536C35.2813 38.8536 37.7188 37.3911 39.0188 35.0348L41.2125 31.1348C41.375 30.9723 41.375 30.6473 41.2938 30.4036Z" fill="white"/>
<path d="M28.375 25.5286C28.375 23.4973 29.5938 21.7098 31.3 20.8161C30.7313 19.5161 29.4313 18.6223 27.9688 18.6223C25.9375 18.6223 24.3125 20.2473 24.3125 22.2786C24.3125 24.3098 25.9375 25.9348 27.9688 25.9348C28.1312 25.9348 28.2125 25.9348 28.375 25.8536C28.375 25.7723 28.375 25.6911 28.375 25.5286Z" fill="white"/>
</g>
<defs>
<clipPath id="clip0_31_128">
<rect width="26" height="26" fill="white" transform="translate(17 16.9973)"/>
</clipPath>
</defs>
</svg>
