<svg width="370" height="108" viewBox="0 0 370 108" fill="none" xmlns="http://www.w3.org/2000/svg">
<path fill-rule="evenodd" clip-rule="evenodd" d="M30.0328 13.9973C52.1091 14.015 70 31.9169 70 53.9973C70 76.0778 52.1091 93.9796 30.0328 93.9973C30.5474 101.815 37.0518 107.997 45 107.997H355C363.284 107.997 370 101.282 370 92.9973V14.9973C370 6.71304 363.284 -0.00268555 355 -0.00268555H45C37.0518 -0.00268555 30.5474 6.17929 30.0328 13.9973Z" fill="#F2F6FC"/>
<path d="M96.12 48.7973H99.96C101.4 48.7973 102.424 49.064 103.032 49.5973C103.651 50.1306 103.96 50.8773 103.96 51.8373C103.96 52.872 103.485 53.6453 102.536 54.1573V54.1893C103.699 54.68 104.28 55.5386 104.28 56.7653C104.28 57.8213 103.971 58.6266 103.352 59.1813C102.744 59.7253 101.72 59.9973 100.28 59.9973H96.12V48.7973ZM98.04 50.5573V53.4373H99.88C100.659 53.4373 101.197 53.3146 101.496 53.0693C101.795 52.824 101.944 52.4666 101.944 51.9973C101.944 51.528 101.795 51.1706 101.496 50.9253C101.197 50.68 100.659 50.5573 99.88 50.5573H98.04ZM98.04 55.0373V58.2373H100.2C100.979 58.2373 101.517 58.1093 101.816 57.8533C102.115 57.5866 102.264 57.1813 102.264 56.6373C102.264 56.0933 102.115 55.6933 101.816 55.4373C101.517 55.1706 100.979 55.0373 100.2 55.0373H98.04ZM113.386 51.9973H115.242V59.9973H113.386V51.9973ZM105.962 51.9973H107.818V54.3973H109.162C110.314 54.3973 111.162 54.648 111.706 55.1493C112.25 55.6506 112.522 56.3333 112.522 57.1973C112.522 58.0613 112.245 58.744 111.69 59.2453C111.146 59.7466 110.303 59.9973 109.162 59.9973H105.962V51.9973ZM107.818 55.9333V58.4613H109.082C109.615 58.4613 109.994 58.3546 110.218 58.1413C110.453 57.928 110.57 57.6133 110.57 57.1973C110.57 56.792 110.453 56.4826 110.218 56.2693C109.983 56.0453 109.605 55.9333 109.082 55.9333H107.818ZM117.321 51.9973H122.921V53.6933H119.177V59.9973H117.321V51.9973ZM127.166 60.1573C125.96 60.1573 125.016 59.816 124.334 59.1333C123.662 58.44 123.326 57.4533 123.326 56.1733V55.8213C123.326 55.192 123.411 54.632 123.582 54.1413C123.763 53.6506 124.019 53.2346 124.35 52.8933C124.691 52.552 125.096 52.2906 125.566 52.1093C126.035 51.928 126.568 51.8373 127.166 51.8373C128.371 51.8373 129.31 52.184 129.982 52.8773C130.664 53.56 131.006 54.5413 131.006 55.8213V56.1733C131.006 56.8026 130.915 57.3626 130.734 57.8533C130.563 58.344 130.307 58.76 129.966 59.1013C129.635 59.4426 129.23 59.704 128.75 59.8853C128.28 60.0666 127.752 60.1573 127.166 60.1573ZM127.166 58.4613C127.752 58.4613 128.211 58.28 128.542 57.9173C128.883 57.544 129.054 56.9626 129.054 56.1733V55.8213C129.054 55.0533 128.883 54.4826 128.542 54.1093C128.2 53.7253 127.742 53.5333 127.166 53.5333C126.579 53.5333 126.115 53.72 125.774 54.0933C125.443 54.456 125.278 55.032 125.278 55.8213V56.1733C125.278 56.9413 125.448 57.5173 125.79 57.9013C126.131 58.2746 126.59 58.4613 127.166 58.4613ZM131.566 58.3013H132.366C132.505 58.088 132.622 57.8533 132.718 57.5973C132.825 57.3413 132.91 57.0586 132.974 56.7493C133.038 56.44 133.086 56.0933 133.118 55.7093C133.15 55.3146 133.166 54.8773 133.166 54.3973V51.9973H139.246V58.3013H140.126V62.0773H138.366V59.9973H133.326V62.0773H131.566V58.3013ZM137.39 58.3013V53.6933H134.926V54.3973C134.926 55.304 134.878 56.0613 134.782 56.6693C134.697 57.2773 134.553 57.8106 134.35 58.2693V58.3013H137.39ZM141.399 51.9973H143.255V55.0693H146.743V51.9973H148.599V59.9973H146.743V56.7653H143.255V59.9973H141.399V51.9973ZM158.105 51.9973H159.961V59.9973H158.105V51.9973ZM150.681 51.9973H152.537V54.3973H153.881C155.033 54.3973 155.881 54.648 156.425 55.1493C156.969 55.6506 157.241 56.3333 157.241 57.1973C157.241 58.0613 156.963 58.744 156.409 59.2453C155.865 59.7466 155.022 59.9973 153.881 59.9973H150.681V51.9973ZM152.537 55.9333V58.4613H153.801C154.334 58.4613 154.713 58.3546 154.937 58.1413C155.171 57.928 155.289 57.6133 155.289 57.1973C155.289 56.792 155.171 56.4826 154.937 56.2693C154.702 56.0453 154.323 55.9333 153.801 55.9333H152.537ZM165.4 60.1573C164.195 60.1573 163.251 59.816 162.568 59.1333C161.896 58.44 161.56 57.4533 161.56 56.1733V55.8213C161.56 55.192 161.645 54.632 161.816 54.1413C161.997 53.64 162.248 53.2186 162.568 52.8773C162.899 52.536 163.293 52.28 163.752 52.1093C164.221 51.928 164.744 51.8373 165.32 51.8373C166.483 51.8373 167.4 52.184 168.072 52.8773C168.744 53.5706 169.08 54.5786 169.08 55.9013V56.5733H163.432C163.485 57.2773 163.661 57.7893 163.96 58.1093C164.259 58.4293 164.712 58.5893 165.32 58.5893C166.28 58.5893 166.867 58.2586 167.08 57.5973H169C168.819 58.4293 168.413 59.064 167.784 59.5013C167.165 59.9386 166.371 60.1573 165.4 60.1573ZM165.32 53.4053C164.755 53.4053 164.323 53.5493 164.024 53.8373C163.725 54.1146 163.533 54.568 163.448 55.1973H167.192C167.117 54.568 166.931 54.1146 166.632 53.8373C166.333 53.5493 165.896 53.4053 165.32 53.4053ZM180.761 59.9973H174.681V51.9973H176.537V58.3013H179.625V51.9973H181.481V58.3013H182.521V62.0773H180.761V59.9973ZM187.166 60.1573C185.96 60.1573 185.016 59.816 184.334 59.1333C183.662 58.44 183.326 57.4533 183.326 56.1733V55.8213C183.326 55.192 183.411 54.632 183.582 54.1413C183.763 53.64 184.014 53.2186 184.334 52.8773C184.664 52.536 185.059 52.28 185.518 52.1093C185.987 51.928 186.51 51.8373 187.086 51.8373C188.248 51.8373 189.166 52.184 189.838 52.8773C190.51 53.5706 190.846 54.5786 190.846 55.9013V56.5733H185.198C185.251 57.2773 185.427 57.7893 185.726 58.1093C186.024 58.4293 186.478 58.5893 187.086 58.5893C188.046 58.5893 188.632 58.2586 188.846 57.5973H190.766C190.584 58.4293 190.179 59.064 189.55 59.5013C188.931 59.9386 188.136 60.1573 187.166 60.1573ZM187.086 53.4053C186.52 53.4053 186.088 53.5493 185.79 53.8373C185.491 54.1146 185.299 54.568 185.214 55.1973H188.958C188.883 54.568 188.696 54.1146 188.398 53.8373C188.099 53.5493 187.662 53.4053 187.086 53.4053ZM192.446 51.9973H194.302V55.0693H197.79V51.9973H199.646V59.9973H197.79V56.7653H194.302V59.9973H192.446V51.9973ZM209.152 51.9973H211.008V59.9973H209.152V51.9973ZM201.728 51.9973H203.584V54.3973H204.928C206.08 54.3973 206.928 54.648 207.472 55.1493C208.016 55.6506 208.288 56.3333 208.288 57.1973C208.288 58.0613 208.01 58.744 207.456 59.2453C206.912 59.7466 206.069 59.9973 204.928 59.9973H201.728V51.9973ZM203.584 55.9333V58.4613H204.848C205.381 58.4613 205.76 58.3546 205.984 58.1413C206.218 57.928 206.336 57.6133 206.336 57.1973C206.336 56.792 206.218 56.4826 205.984 56.2693C205.749 56.0453 205.37 55.9333 204.848 55.9333H203.584Z" fill="#383838"/>
<circle cx="30" cy="53.9973" r="30" fill="#0046BB"/>
<g clip-path="url(#clip0_31_122)">
<path d="M33.6562 53.1848C35.6755 53.1848 37.3125 51.5479 37.3125 49.5286C37.3125 47.5093 35.6755 45.8723 33.6562 45.8723C31.637 45.8723 30 47.5093 30 49.5286C30 51.5479 31.637 53.1848 33.6562 53.1848Z" fill="white"/>
<path d="M41.2938 54.4036C41.1313 54.1598 40.8875 53.9973 40.5625 53.9973C38.775 53.9973 37.0688 54.8098 36.0125 56.2723L35.2813 57.2473C34.3875 58.3036 33.0063 58.8723 31.625 58.8723H29.1875C28.7 58.8723 28.375 58.5473 28.375 58.0598C28.375 57.5723 28.7 57.2473 29.1875 57.2473H30.7313C32.0313 57.2473 33.25 56.1911 33.25 54.8911V54.8098C33.25 54.4036 32.8438 53.9973 32.4375 53.9973H27.4813C24.5563 53.9973 22.2 55.2973 20.9 57.4098L18.7063 60.8223C18.5438 61.0661 18.5438 61.3911 18.7063 61.6348L21.1438 65.6973C21.225 65.8598 21.4688 66.0223 21.6313 66.1036C21.7125 66.1036 21.7125 66.1036 21.7938 66.1036C21.9563 66.1036 22.1188 66.0223 22.2813 65.9411C25.3688 63.9098 28.9438 62.8536 32.6 62.8536C35.2813 62.8536 37.7188 61.3911 39.0188 59.0348L41.2125 55.1348C41.375 54.9723 41.375 54.6473 41.2938 54.4036Z" fill="white"/>
<path d="M28.375 49.5286C28.375 47.4973 29.5938 45.7098 31.3 44.8161C30.7313 43.5161 29.4313 42.6223 27.9688 42.6223C25.9375 42.6223 24.3125 44.2473 24.3125 46.2786C24.3125 48.3098 25.9375 49.9348 27.9688 49.9348C28.1312 49.9348 28.2125 49.9348 28.375 49.8536C28.375 49.7723 28.375 49.6911 28.375 49.5286Z" fill="white"/>
</g>
<defs>
<clipPath id="clip0_31_122">
<rect width="26" height="26" fill="white" transform="translate(17 40.9973)"/>
</clipPath>
</defs>
</svg>
