<svg width="80" height="80" viewBox="0 0 80 80" fill="none" xmlns="http://www.w3.org/2000/svg">
<circle cx="40" cy="40" r="35" fill="#0046BB" stroke="white" stroke-width="10"/>
<g clip-path="url(#clip0_20_232)">
<path d="M52.4599 38.6514L47.2363 42.9175C46.9225 43.1729 46.7842 43.5878 46.8799 43.9814L48.4597 50.4337C48.6938 51.4816 47.8959 52.3487 47.0023 52.3487C46.7363 52.3487 46.4544 52.2689 46.1937 52.0987L40.4808 48.5879C40.1403 48.3805 39.7148 48.3805 39.3743 48.5932L33.7305 52.104C33.4699 52.2795 33.188 52.354 32.9167 52.354C32.0018 52.354 31.1773 51.487 31.4645 50.4391L33.0443 43.9814C33.1401 43.5878 33.0018 43.1782 32.6933 42.9228L27.5388 38.6621C26.4803 37.7578 27.0867 36.0184 28.4431 35.9439L35.1189 35.4598C35.5178 35.4332 35.8636 35.1779 36.0125 34.8109L38.5658 28.6085C38.8318 27.9649 39.4169 27.6458 40.002 27.6458C40.5871 27.6458 41.1723 27.9649 41.4382 28.6085L43.9862 34.8056C44.1351 35.1726 44.4862 35.4226 44.8798 35.4545L51.5556 35.9386C52.9173 36.013 53.5184 37.7471 52.4599 38.6514Z" fill="white"/>
</g>
<defs>
<clipPath id="clip0_20_232">
<rect width="26" height="26" fill="white" transform="translate(27 27)"/>
</clipPath>
</defs>
</svg>
