<svg width="60" height="60" viewBox="0 0 60 60" fill="none" xmlns="http://www.w3.org/2000/svg">
<circle cx="30" cy="30" r="30" fill="#0046BB"/>
<g clip-path="url(#clip0_31_104)">
<path d="M42.4599 28.6514L37.2363 32.9175C36.9225 33.1729 36.7842 33.5878 36.8799 33.9814L38.4597 40.4337C38.6938 41.4816 37.8959 42.3487 37.0023 42.3487C36.7363 42.3487 36.4544 42.2689 36.1937 42.0987L30.4808 38.5879C30.1403 38.3805 29.7148 38.3805 29.3743 38.5932L23.7305 42.104C23.4699 42.2795 23.188 42.354 22.9167 42.354C22.0018 42.354 21.1773 41.487 21.4645 40.4391L23.0443 33.9814C23.1401 33.5878 23.0018 33.1782 22.6933 32.9228L17.5388 28.6621C16.4803 27.7578 17.0867 26.0184 18.4431 25.9439L25.1189 25.4598C25.5178 25.4332 25.8636 25.1779 26.0125 24.8109L28.5658 18.6085C28.8318 17.9649 29.4169 17.6458 30.002 17.6458C30.5871 17.6458 31.1723 17.9649 31.4382 18.6085L33.9862 24.8056C34.1351 25.1726 34.4862 25.4226 34.8798 25.4545L41.5556 25.9386C42.9173 26.013 43.5184 27.7471 42.4599 28.6514Z" fill="white"/>
</g>
<defs>
<clipPath id="clip0_31_104">
<rect width="26" height="26" fill="white" transform="translate(17 17)"/>
</clipPath>
</defs>
</svg>
