<svg width="370" height="108" viewBox="0 0 370 108" fill="none" xmlns="http://www.w3.org/2000/svg">
<path fill-rule="evenodd" clip-rule="evenodd" d="M30.0328 14C52.1091 14.0177 70 31.9195 70 54C70 76.0805 52.1091 93.9823 30.0328 94C30.5474 101.818 37.0518 108 45 108H355C363.284 108 370 101.284 370 93V15C370 6.71573 363.284 0 355 0H45C37.0518 0 30.5474 6.18198 30.0328 14Z" fill="#F2F6FC"/>
<path d="M96.12 36.8H103V38.56H98.04V48H96.12V36.8ZM104.593 48.16C103.643 48.16 102.939 47.9467 102.481 47.52C102.022 47.0933 101.793 46.5013 101.793 45.744C101.793 45.3493 101.857 44.992 101.985 44.672C102.113 44.352 102.321 44.08 102.609 43.856C102.897 43.632 103.27 43.4613 103.729 43.344C104.187 43.216 104.742 43.152 105.393 43.152H106.977V42.72C106.977 42.304 106.854 41.984 106.609 41.76C106.363 41.5253 105.985 41.408 105.473 41.408C104.961 41.408 104.593 41.504 104.369 41.696C104.145 41.8773 104.011 42.112 103.969 42.4H102.113C102.134 42.0373 102.219 41.7013 102.368 41.392C102.518 41.072 102.731 40.8 103.009 40.576C103.286 40.3413 103.627 40.16 104.033 40.032C104.449 39.904 104.929 39.84 105.473 39.84C106.614 39.84 107.457 40.1013 108.001 40.624C108.555 41.1467 108.833 41.8987 108.833 42.88V48H107.393L107.217 46.96H107.185C106.875 47.344 106.497 47.6427 106.049 47.856C105.601 48.0587 105.115 48.16 104.593 48.16ZM104.913 46.592C105.211 46.592 105.483 46.544 105.729 46.448C105.985 46.352 106.203 46.224 106.385 46.064C106.566 45.8933 106.71 45.696 106.817 45.472C106.923 45.2373 106.977 44.9867 106.977 44.72V44.528H105.473C104.833 44.528 104.385 44.6347 104.129 44.848C103.873 45.0507 103.745 45.328 103.745 45.68C103.745 45.9467 103.835 46.1653 104.017 46.336C104.209 46.5067 104.507 46.592 104.913 46.592ZM110.837 40H112.277L112.437 40.96H112.469C113.12 40.2133 113.973 39.84 115.029 39.84C115.53 39.84 115.984 39.9253 116.389 40.096C116.805 40.256 117.157 40.5013 117.445 40.832C117.733 41.1627 117.957 41.5787 118.117 42.08C118.277 42.5707 118.357 43.152 118.357 43.824V44.176C118.357 45.4987 118.048 46.496 117.429 47.168C116.821 47.8293 116.021 48.16 115.029 48.16C114.57 48.16 114.133 48.0747 113.717 47.904C113.312 47.7333 112.981 47.4987 112.725 47.2H112.693V51.2H110.837V40ZM114.549 46.464C115.125 46.464 115.578 46.2827 115.909 45.92C116.24 45.5573 116.405 44.976 116.405 44.176V43.824C116.405 43.0453 116.234 42.4693 115.893 42.096C115.562 41.7227 115.114 41.536 114.549 41.536C113.973 41.536 113.52 41.7227 113.189 42.096C112.858 42.4587 112.693 43.04 112.693 43.84V44.192C112.693 44.96 112.858 45.5307 113.189 45.904C113.53 46.2773 113.984 46.464 114.549 46.464ZM122.202 48.16C121.253 48.16 120.549 47.9467 120.09 47.52C119.631 47.0933 119.402 46.5013 119.402 45.744C119.402 45.3493 119.466 44.992 119.594 44.672C119.722 44.352 119.93 44.08 120.218 43.856C120.506 43.632 120.879 43.4613 121.338 43.344C121.797 43.216 122.351 43.152 123.002 43.152H124.586V42.72C124.586 42.304 124.463 41.984 124.218 41.76C123.973 41.5253 123.594 41.408 123.082 41.408C122.57 41.408 122.202 41.504 121.978 41.696C121.754 41.8773 121.621 42.112 121.578 42.4H119.722C119.743 42.0373 119.829 41.7013 119.978 41.392C120.127 41.072 120.341 40.8 120.618 40.576C120.895 40.3413 121.237 40.16 121.642 40.032C122.058 39.904 122.538 39.84 123.082 39.84C124.223 39.84 125.066 40.1013 125.61 40.624C126.165 41.1467 126.442 41.8987 126.442 42.88V48H125.002L124.826 46.96H124.794C124.485 47.344 124.106 47.6427 123.658 47.856C123.21 48.0587 122.725 48.16 122.202 48.16ZM122.522 46.592C122.821 46.592 123.093 46.544 123.338 46.448C123.594 46.352 123.813 46.224 123.994 46.064C124.175 45.8933 124.319 45.696 124.426 45.472C124.533 45.2373 124.586 44.9867 124.586 44.72V44.528H123.082C122.442 44.528 121.994 44.6347 121.738 44.848C121.482 45.0507 121.354 45.328 121.354 45.68C121.354 45.9467 121.445 46.1653 121.626 46.336C121.818 46.5067 122.117 46.592 122.522 46.592ZM128.446 40H130.302V43.072H133.79V40H135.646V48H133.79V44.768H130.302V48H128.446V40ZM139.28 41.696H136.848V40H143.568V41.696H141.136V48H139.28V41.696ZM144.774 40H146.63V45.6H146.662L149.574 40H151.974V48H150.118V42.4H150.086L147.174 48H144.774V40ZM155.048 45.056C154.557 44.8427 154.2 44.5387 153.976 44.144C153.762 43.7387 153.656 43.2587 153.656 42.704C153.656 42.2773 153.72 41.8987 153.848 41.568C153.976 41.2267 154.178 40.944 154.456 40.72C154.744 40.4853 155.112 40.3093 155.56 40.192C156.008 40.064 156.546 40 157.176 40H160.056V48H158.2V45.408H157.176H156.824L155.416 48H153.336L155.048 45.056ZM155.608 42.704C155.608 43.0667 155.725 43.3493 155.96 43.552C156.205 43.744 156.637 43.84 157.256 43.84H158.2V41.568H157.256C156.637 41.568 156.205 41.6693 155.96 41.872C155.725 42.064 155.608 42.3413 155.608 42.704ZM166.134 40H167.99V43.072H171.478V40H173.334V48H171.478V44.768H167.99V48H166.134V40ZM177.655 48.16C176.706 48.16 176.002 47.9467 175.543 47.52C175.084 47.0933 174.855 46.5013 174.855 45.744C174.855 45.3493 174.919 44.992 175.047 44.672C175.175 44.352 175.383 44.08 175.671 43.856C175.959 43.632 176.332 43.4613 176.791 43.344C177.25 43.216 177.804 43.152 178.455 43.152H180.039V42.72C180.039 42.304 179.916 41.984 179.671 41.76C179.426 41.5253 179.047 41.408 178.535 41.408C178.023 41.408 177.655 41.504 177.431 41.696C177.207 41.8773 177.074 42.112 177.031 42.4H175.175C175.196 42.0373 175.282 41.7013 175.431 41.392C175.58 41.072 175.794 40.8 176.071 40.576C176.348 40.3413 176.69 40.16 177.095 40.032C177.511 39.904 177.991 39.84 178.535 39.84C179.676 39.84 180.519 40.1013 181.063 40.624C181.618 41.1467 181.895 41.8987 181.895 42.88V48H180.455L180.279 46.96H180.247C179.938 47.344 179.559 47.6427 179.111 47.856C178.663 48.0587 178.178 48.16 177.655 48.16ZM177.975 46.592C178.274 46.592 178.546 46.544 178.791 46.448C179.047 46.352 179.266 46.224 179.447 46.064C179.628 45.8933 179.772 45.696 179.879 45.472C179.986 45.2373 180.039 44.9867 180.039 44.72V44.528H178.535C177.895 44.528 177.447 44.6347 177.191 44.848C176.935 45.0507 176.807 45.328 176.807 45.68C176.807 45.9467 176.898 46.1653 177.079 46.336C177.271 46.5067 177.57 46.592 177.975 46.592ZM187.899 40H189.755V42.992H190.555L192.539 40H194.619L192.043 43.744L194.939 48H192.731L190.555 44.688H189.755V48H187.899V40ZM198.139 48.16C197.19 48.16 196.486 47.9467 196.027 47.52C195.569 47.0933 195.339 46.5013 195.339 45.744C195.339 45.3493 195.403 44.992 195.531 44.672C195.659 44.352 195.867 44.08 196.155 43.856C196.443 43.632 196.817 43.4613 197.275 43.344C197.734 43.216 198.289 43.152 198.939 43.152H200.523V42.72C200.523 42.304 200.401 41.984 200.155 41.76C199.91 41.5253 199.531 41.408 199.019 41.408C198.507 41.408 198.139 41.504 197.915 41.696C197.691 41.8773 197.558 42.112 197.515 42.4H195.659C195.681 42.0373 195.766 41.7013 195.915 41.392C196.065 41.072 196.278 40.8 196.555 40.576C196.833 40.3413 197.174 40.16 197.579 40.032C197.995 39.904 198.475 39.84 199.019 39.84C200.161 39.84 201.003 40.1013 201.547 40.624C202.102 41.1467 202.379 41.8987 202.379 42.88V48H200.939L200.763 46.96H200.731C200.422 47.344 200.043 47.6427 199.595 47.856C199.147 48.0587 198.662 48.16 198.139 48.16ZM198.459 46.592C198.758 46.592 199.03 46.544 199.275 46.448C199.531 46.352 199.75 46.224 199.931 46.064C200.113 45.8933 200.257 45.696 200.363 45.472C200.47 45.2373 200.523 44.9867 200.523 44.72V44.528H199.019C198.379 44.528 197.931 44.6347 197.675 44.848C197.419 45.0507 197.291 45.328 197.291 45.68C197.291 45.9467 197.382 46.1653 197.563 46.336C197.755 46.5067 198.054 46.592 198.459 46.592ZM205.808 43.808L203.584 40H205.632L207.296 42.992H208.096V40H209.952V42.992H210.752L212.448 40H214.464L212.224 43.744L214.624 48H212.512L210.752 44.688H209.952V48H208.096V44.688H207.296L205.504 48H203.424L205.808 43.808ZM215.098 46.304H215.898C216.036 46.0907 216.154 45.856 216.25 45.6C216.356 45.344 216.442 45.0613 216.506 44.752C216.57 44.4427 216.618 44.096 216.65 43.712C216.682 43.3173 216.698 42.88 216.698 42.4V40H222.778V46.304H223.658V50.08H221.898V48H216.858V50.08H215.098V46.304ZM220.922 46.304V41.696H218.458V42.4C218.458 43.3067 218.41 44.064 218.314 44.672C218.228 45.28 218.084 45.8133 217.882 46.272V46.304H220.922ZM227.062 48L223.814 40H225.83L228.022 45.696H228.054L230.086 40H231.974L227.734 51.2H225.846L227.062 48ZM233.087 40H234.943V43.072H236.015C236.132 42.0693 236.5 41.28 237.119 40.704C237.748 40.128 238.591 39.84 239.647 39.84C240.799 39.84 241.7 40.1813 242.351 40.864C243.002 41.536 243.327 42.5227 243.327 43.824V44.176C243.327 45.4667 242.996 46.4533 242.335 47.136C241.674 47.8187 240.778 48.16 239.647 48.16C238.538 48.16 237.674 47.8613 237.055 47.264C236.436 46.6667 236.084 45.8347 235.999 44.768H234.943V48H233.087V40ZM239.647 46.464C240.191 46.464 240.612 46.2933 240.911 45.952C241.22 45.6 241.375 45.008 241.375 44.176V43.824C241.375 43.0133 241.22 42.432 240.911 42.08C240.602 41.7173 240.18 41.536 239.647 41.536C239.082 41.536 238.644 41.7067 238.335 42.048C238.036 42.3893 237.887 42.9547 237.887 43.744V44.096C237.887 44.9493 238.042 45.5573 238.351 45.92C238.671 46.2827 239.103 46.464 239.647 46.464ZM97.592 65.696H95.16V64H101.88V65.696H99.448V72H97.592V65.696ZM106.134 72.16C104.929 72.16 103.985 71.8187 103.302 71.136C102.63 70.4427 102.294 69.456 102.294 68.176V67.824C102.294 67.1947 102.38 66.6347 102.55 66.144C102.732 65.6533 102.988 65.2373 103.318 64.896C103.66 64.5547 104.065 64.2933 104.534 64.112C105.004 63.9307 105.537 63.84 106.134 63.84C107.34 63.84 108.278 64.1867 108.95 64.88C109.633 65.5627 109.974 66.544 109.974 67.824V68.176C109.974 68.8053 109.884 69.3653 109.702 69.856C109.532 70.3467 109.276 70.7627 108.934 71.104C108.604 71.4453 108.198 71.7067 107.718 71.888C107.249 72.0693 106.721 72.16 106.134 72.16ZM106.134 70.464C106.721 70.464 107.18 70.2827 107.51 69.92C107.852 69.5467 108.022 68.9653 108.022 68.176V67.824C108.022 67.056 107.852 66.4853 107.51 66.112C107.169 65.728 106.71 65.536 106.134 65.536C105.548 65.536 105.084 65.7227 104.742 66.096C104.412 66.4587 104.246 67.0347 104.246 67.824V68.176C104.246 68.944 104.417 69.52 104.758 69.904C105.1 70.2773 105.558 70.464 106.134 70.464ZM111.571 64H114.771C115.347 64 115.838 64.0533 116.243 64.16C116.649 64.2667 116.979 64.4213 117.235 64.624C117.491 64.816 117.678 65.0507 117.795 65.328C117.913 65.6053 117.971 65.9147 117.971 66.256C117.971 66.5867 117.886 66.8907 117.715 67.168C117.545 67.4347 117.305 67.6533 116.995 67.824V67.856C117.401 68.016 117.715 68.256 117.939 68.576C118.174 68.896 118.291 69.2587 118.291 69.664C118.291 70.3893 118.046 70.96 117.555 71.376C117.075 71.792 116.254 72 115.091 72H111.571V64ZM116.019 66.368C116.019 66.112 115.923 65.9147 115.731 65.776C115.55 65.6373 115.203 65.568 114.691 65.568H113.427V67.232H114.691C115.203 67.232 115.55 67.152 115.731 66.992C115.923 66.832 116.019 66.624 116.019 66.368ZM116.339 69.52C116.339 69.2427 116.238 69.024 116.035 68.864C115.843 68.6933 115.502 68.608 115.011 68.608H113.427V70.432H115.011C115.502 70.432 115.843 70.352 116.035 70.192C116.238 70.0213 116.339 69.7973 116.339 69.52ZM122.124 72.16C121.174 72.16 120.47 71.9467 120.012 71.52C119.553 71.0933 119.324 70.5013 119.324 69.744C119.324 69.3493 119.388 68.992 119.516 68.672C119.644 68.352 119.852 68.08 120.14 67.856C120.428 67.632 120.801 67.4613 121.26 67.344C121.718 67.216 122.273 67.152 122.924 67.152H124.508V66.72C124.508 66.304 124.385 65.984 124.14 65.76C123.894 65.5253 123.516 65.408 123.004 65.408C122.492 65.408 122.124 65.504 121.9 65.696C121.676 65.8773 121.542 66.112 121.5 66.4H119.644C119.665 66.0373 119.75 65.7013 119.9 65.392C120.049 65.072 120.262 64.8 120.54 64.576C120.817 64.3413 121.158 64.16 121.564 64.032C121.98 63.904 122.46 63.84 123.004 63.84C124.145 63.84 124.988 64.1013 125.532 64.624C126.086 65.1467 126.364 65.8987 126.364 66.88V72H124.924L124.748 70.96H124.716C124.406 71.344 124.028 71.6427 123.58 71.856C123.132 72.0587 122.646 72.16 122.124 72.16ZM122.444 70.592C122.742 70.592 123.014 70.544 123.26 70.448C123.516 70.352 123.734 70.224 123.916 70.064C124.097 69.8933 124.241 69.696 124.348 69.472C124.454 69.2373 124.508 68.9867 124.508 68.72V68.528H123.004C122.364 68.528 121.916 68.6347 121.66 68.848C121.404 69.0507 121.276 69.328 121.276 69.68C121.276 69.9467 121.366 70.1653 121.548 70.336C121.74 70.5067 122.038 70.592 122.444 70.592ZM128.368 64H129.808L129.968 64.96H130C130.651 64.2133 131.504 63.84 132.56 63.84C133.061 63.84 133.515 63.9253 133.92 64.096C134.336 64.256 134.688 64.5013 134.976 64.832C135.264 65.1627 135.488 65.5787 135.648 66.08C135.808 66.5707 135.888 67.152 135.888 67.824V68.176C135.888 69.4987 135.579 70.496 134.96 71.168C134.352 71.8293 133.552 72.16 132.56 72.16C132.101 72.16 131.664 72.0747 131.248 71.904C130.843 71.7333 130.512 71.4987 130.256 71.2H130.224V75.2H128.368V64ZM132.08 70.464C132.656 70.464 133.109 70.2827 133.44 69.92C133.771 69.5573 133.936 68.976 133.936 68.176V67.824C133.936 67.0453 133.765 66.4693 133.424 66.096C133.093 65.7227 132.645 65.536 132.08 65.536C131.504 65.536 131.051 65.7227 130.72 66.096C130.389 66.4587 130.224 67.04 130.224 67.84V68.192C130.224 68.96 130.389 69.5307 130.72 69.904C131.061 70.2773 131.515 70.464 132.08 70.464ZM137.493 64H139.349V67.072H142.837V64H144.693V72H142.837V68.768H139.349V72H137.493V64ZM149.062 72L145.814 64H147.83L150.022 69.696H150.054L152.086 64H153.974L149.734 75.2H147.846L149.062 72ZM155.087 64H156.943V67.072H158.015C158.132 66.0693 158.5 65.28 159.119 64.704C159.748 64.128 160.591 63.84 161.647 63.84C162.799 63.84 163.7 64.1813 164.351 64.864C165.002 65.536 165.327 66.5227 165.327 67.824V68.176C165.327 69.4667 164.996 70.4533 164.335 71.136C163.674 71.8187 162.778 72.16 161.647 72.16C160.538 72.16 159.674 71.8613 159.055 71.264C158.436 70.6667 158.084 69.8347 157.999 68.768H156.943V72H155.087V64ZM161.647 70.464C162.191 70.464 162.612 70.2933 162.911 69.952C163.22 69.6 163.375 69.008 163.375 68.176V67.824C163.375 67.0133 163.22 66.432 162.911 66.08C162.602 65.7173 162.18 65.536 161.647 65.536C161.082 65.536 160.644 65.7067 160.335 66.048C160.036 66.3893 159.887 66.9547 159.887 67.744V68.096C159.887 68.9493 160.042 69.5573 160.351 69.92C160.671 70.2827 161.103 70.464 161.647 70.464ZM170.931 64H177.811V72H175.955V65.696H172.787V72H170.931V64ZM183.244 72.16C182.038 72.16 181.094 71.8187 180.412 71.136C179.74 70.4427 179.404 69.456 179.404 68.176V67.824C179.404 67.1947 179.489 66.6347 179.66 66.144C179.841 65.6533 180.097 65.2373 180.428 64.896C180.769 64.5547 181.174 64.2933 181.644 64.112C182.113 63.9307 182.646 63.84 183.244 63.84C184.449 63.84 185.388 64.1867 186.06 64.88C186.742 65.5627 187.084 66.544 187.084 67.824V68.176C187.084 68.8053 186.993 69.3653 186.812 69.856C186.641 70.3467 186.385 70.7627 186.044 71.104C185.713 71.4453 185.308 71.7067 184.828 71.888C184.358 72.0693 183.83 72.16 183.244 72.16ZM183.244 70.464C183.83 70.464 184.289 70.2827 184.62 69.92C184.961 69.5467 185.132 68.9653 185.132 68.176V67.824C185.132 67.056 184.961 66.4853 184.62 66.112C184.278 65.728 183.82 65.536 183.244 65.536C182.657 65.536 182.193 65.7227 181.852 66.096C181.521 66.4587 181.356 67.0347 181.356 67.824V68.176C181.356 68.944 181.526 69.52 181.868 69.904C182.209 70.2773 182.668 70.464 183.244 70.464ZM191.481 72.16C190.307 72.16 189.443 71.9147 188.889 71.424C188.345 70.9333 188.035 70.2187 187.961 69.28H189.913C189.998 69.7387 190.158 70.08 190.393 70.304C190.627 70.5173 190.99 70.624 191.481 70.624C191.993 70.624 192.355 70.5387 192.569 70.368C192.782 70.1867 192.889 69.9467 192.889 69.648C192.889 69.36 192.782 69.1307 192.569 68.96C192.355 68.7787 191.993 68.688 191.481 68.688H190.601V67.152H191.481C191.886 67.152 192.179 67.072 192.361 66.912C192.553 66.752 192.649 66.5387 192.649 66.272C192.649 65.9947 192.553 65.776 192.361 65.616C192.179 65.456 191.886 65.376 191.481 65.376C191.086 65.376 190.787 65.472 190.585 65.664C190.382 65.856 190.238 66.1547 190.153 66.56H188.201C188.286 65.6853 188.585 65.0133 189.097 64.544C189.609 64.0747 190.403 63.84 191.481 63.84C192.558 63.84 193.347 64.064 193.849 64.512C194.35 64.9493 194.601 65.52 194.601 66.224C194.601 66.9493 194.265 67.4933 193.593 67.856V67.888C193.998 68.0693 194.307 68.3147 194.521 68.624C194.734 68.9227 194.841 69.2747 194.841 69.68C194.841 70.416 194.574 71.0133 194.041 71.472C193.518 71.9307 192.665 72.16 191.481 72.16ZM196.446 64H198.302V69.6H198.334L201.246 64H203.646V72H201.79V66.4H201.758L198.846 72H196.446V64ZM211.808 72H205.728V64H207.584V70.304H210.672V64H212.528V70.304H213.568V74.08H211.808V72ZM214.853 64H216.709V69.6H216.741L219.653 64H222.053V72H220.197V66.4H220.165L217.253 72H214.853V64ZM224.134 64H225.99V67.072H227.062C227.179 66.0693 227.547 65.28 228.166 64.704C228.795 64.128 229.638 63.84 230.694 63.84C231.846 63.84 232.747 64.1813 233.398 64.864C234.048 65.536 234.374 66.5227 234.374 67.824V68.176C234.374 69.4667 234.043 70.4533 233.382 71.136C232.72 71.8187 231.824 72.16 230.694 72.16C229.584 72.16 228.72 71.8613 228.102 71.264C227.483 70.6667 227.131 69.8347 227.046 68.768H225.99V72H224.134V64ZM230.694 70.464C231.238 70.464 231.659 70.2933 231.958 69.952C232.267 69.6 232.422 69.008 232.422 68.176V67.824C232.422 67.0133 232.267 66.432 231.958 66.08C231.648 65.7173 231.227 65.536 230.694 65.536C230.128 65.536 229.691 65.7067 229.382 66.048C229.083 66.3893 228.934 66.9547 228.934 67.744V68.096C228.934 68.9493 229.088 69.5573 229.398 69.92C229.718 70.2827 230.15 70.464 230.694 70.464Z" fill="#383838"/>
<circle cx="30" cy="54" r="30" fill="#0046BB"/>
<path d="M41.2915 44.6388C41.2448 44.3036 41.0036 44.0278 40.6776 43.9372L30.2277 41.0311C30.0787 40.9896 29.9214 40.9896 29.7723 41.0311L19.3224 43.9372C18.9964 44.0278 18.7552 44.3035 18.7085 44.6388C18.6479 45.0746 17.2652 55.3722 20.8118 60.495C24.3541 65.6116 29.5798 66.9228 29.8005 66.9762C29.8661 66.992 29.9329 66.9998 30 66.9998C30.0671 66.9998 30.1339 66.9919 30.1995 66.9762C30.4203 66.9228 35.646 65.6116 39.1883 60.495C42.7348 55.3723 41.3521 45.0747 41.2915 44.6388ZM36.7388 50.6506L29.611 57.7785C29.4451 57.9444 29.2276 58.0274 29.0102 58.0274C28.7928 58.0274 28.5753 57.9445 28.4094 57.7785L24.0023 53.3714C23.8429 53.2121 23.7534 52.996 23.7534 52.7706C23.7534 52.5453 23.843 52.3291 24.0023 52.1699L24.8774 51.2948C25.2092 50.9631 25.7472 50.963 26.0789 51.2948L29.0102 54.2261L34.6622 48.5739C34.8215 48.4145 35.0377 48.325 35.263 48.325C35.4883 48.325 35.7045 48.4145 35.8638 48.5739L36.7388 49.449C37.0706 49.7808 37.0706 50.3188 36.7388 50.6506Z" fill="white"/>
</svg>
